<svg id="Layer_1" data-name="Layer 1" xmlns="http://www.w3.org/2000/svg" width="818.67" height="164" viewBox="0 0 818.67 164">
  <defs>
    <style>
      .cls-1 {
        fill: #2d8700;
      }

      .cls-2 {
        fill: #e75300;
      }

      .cls-3 {
        fill: #00539f;
      }

      .cls-4 {
        fill: #4b4f54;
      }
    </style>
  </defs>
  <title>Artboard 1</title>
  <g>
    <g>
      <path class="cls-1" d="M189.63,70.1a9.76,9.76,0,0,1-4.41-1,11.05,11.05,0,0,1-3.42-2.62,11.7,11.7,0,0,1-2.21-3.73,12.34,12.34,0,0,1-.78-4.29,11.9,11.9,0,0,1,.83-4.39,12.1,12.1,0,0,1,2.28-3.72,10.9,10.9,0,0,1,3.46-2.57,10,10,0,0,1,4.36-1,9.53,9.53,0,0,1,4.41,1,11.15,11.15,0,0,1,3.41,2.66,12.35,12.35,0,0,1,3,8,12.07,12.07,0,0,1-3.1,8.09A11.06,11.06,0,0,1,194,69.15,9.9,9.9,0,0,1,189.63,70.1Zm-7.14-11.62a10,10,0,0,0,.5,3.13,8.43,8.43,0,0,0,1.44,2.68,7.08,7.08,0,0,0,2.26,1.86,6.68,6.68,0,0,0,6,0,7.05,7.05,0,0,0,2.26-1.92,8.83,8.83,0,0,0,1.41-2.68,9.83,9.83,0,0,0,0-6.18,8.62,8.62,0,0,0-1.45-2.65,7.22,7.22,0,0,0-2.26-1.84,6.59,6.59,0,0,0-6,0,7.26,7.26,0,0,0-2.26,1.89,8.38,8.38,0,0,0-1.4,2.66A9.86,9.86,0,0,0,182.49,58.48Z"/>
      <path class="cls-1" d="M205.81,69.94V47h15.27v3.2H209.42v6.85h9.75v3h-9.75v9.88Z"/>
      <path class="cls-1" d="M225.93,69.94V47H241.2v3.2H229.54v6.85h9.75v3h-9.75v9.88Z"/>
      <path class="cls-1" d="M246,69.94V47h3.62v22.9Z"/>
      <path class="cls-1" d="M254.93,58.31a12,12,0,0,1,.74-4.12,11.67,11.67,0,0,1,2.15-3.68,10.7,10.7,0,0,1,3.44-2.63,10.32,10.32,0,0,1,4.62-1,9.73,9.73,0,0,1,5.28,1.39,8.81,8.81,0,0,1,3.31,3.62l-2.84,1.91A6,6,0,0,0,270.49,52,5.85,5.85,0,0,0,269,50.92a6.27,6.27,0,0,0-1.63-.6,8,8,0,0,0-1.65-.18,6.38,6.38,0,0,0-3.09.73,6.89,6.89,0,0,0-2.24,1.92,8.54,8.54,0,0,0-1.36,2.68,10.13,10.13,0,0,0-.45,3,9.59,9.59,0,0,0,.53,3.2,8.57,8.57,0,0,0,1.5,2.68,7.48,7.48,0,0,0,2.29,1.86,6.12,6.12,0,0,0,2.9.7,7.44,7.44,0,0,0,1.7-.21,6,6,0,0,0,1.68-.68,7,7,0,0,0,1.47-1.18,6.08,6.08,0,0,0,1.13-1.71l3,1.71a7.17,7.17,0,0,1-1.53,2.28,9.94,9.94,0,0,1-2.21,1.66,11.26,11.26,0,0,1-5.36,1.39,9.25,9.25,0,0,1-4.36-1,11.59,11.59,0,0,1-3.41-2.7,12.53,12.53,0,0,1-3-8.09Z"/>
      <path class="cls-1" d="M295.46,66.74v3.2H279.73V47h15.44v3.2H283.35v6.52h10.24v3H283.35v7Z"/>
      <path class="cls-1" d="M319.71,70.1a9.78,9.78,0,0,1-4.41-1,11,11,0,0,1-3.42-2.62,11.65,11.65,0,0,1-2.21-3.73,12.28,12.28,0,0,1-.78-4.29,11.9,11.9,0,0,1,.82-4.39A12.11,12.11,0,0,1,312,50.37a10.86,10.86,0,0,1,3.45-2.57,10,10,0,0,1,4.36-1,9.53,9.53,0,0,1,4.41,1,11.21,11.21,0,0,1,3.41,2.66,12.33,12.33,0,0,1,3,8,12.08,12.08,0,0,1-3.1,8.09,11.07,11.07,0,0,1-3.44,2.55A9.9,9.9,0,0,1,319.71,70.1Zm-7.14-11.62a9.94,9.94,0,0,0,.5,3.13,8.43,8.43,0,0,0,1.44,2.68,7.11,7.11,0,0,0,2.26,1.86,6.31,6.31,0,0,0,3,.69,6.24,6.24,0,0,0,3-.73A7.11,7.11,0,0,0,325,64.19a8.87,8.87,0,0,0,1.4-2.68,9.73,9.73,0,0,0,.49-3,9.61,9.61,0,0,0-.52-3.15,8.51,8.51,0,0,0-1.45-2.65,7.21,7.21,0,0,0-2.26-1.84,6.59,6.59,0,0,0-6,0,7.23,7.23,0,0,0-2.26,1.89,8.39,8.39,0,0,0-1.41,2.66A9.86,9.86,0,0,0,312.57,58.48Z"/>
      <path class="cls-1" d="M335.89,69.94V47h15.28v3.2H339.51v6.85h9.75v3h-9.75v9.88Z"/>
    </g>
    <path class="cls-2" d="M82.3,4.17a77.49,77.49,0,1,0,77.49,77.49A77.49,77.49,0,0,0,82.3,4.17Zm0,154.31a76.9,76.9,0,1,1,76.9-76.9A77,77,0,0,1,82.27,158.48Z"/>
    <g>
      <path class="cls-3" d="M82.3,7.39a74.28,74.28,0,1,0,74.27,74.28A74.36,74.36,0,0,0,82.3,7.39Zm66,71.29c-2.72.33-6.19-1.29-6.53-4.07-.37-3,2.18-5.14,5.35-5.53,2.72-.33,6.19,1.29,6.53,4.07C154,76.19,151.5,78.29,148.32,78.68Zm3.93-12.45-.51.13-.35-.84L141.54,68l.09.91-.51.13-.93-3.69.51-.13.35.84,9.85-2.49-.09-.91.51-.13ZM148.33,54l1.83,4.78a3.57,3.57,0,0,0,.77,1.34l-3,1.92-.31-.44c1.2-1.14,2.14-2.35,1.48-4.08l-9.61,3.68.2.89-.49.19-1.36-3.55.49-.19.44.8,9.61-3.68c-.66-1.73-2.17-2-3.82-2l-.06-.54,3.5-.57A3.58,3.58,0,0,0,148.33,54Zm-8.56,27.57A57.32,57.32,0,1,1,82.46,24.24,57.38,57.38,0,0,1,139.78,81.56Zm4-36.42L145,47l-7.66,8.53.28.88-.46.26-1.95-3.4.45-.26.62.68,2.06-2.28L136.4,48l-1.6.35a2.29,2.29,0,0,0-.68.26c-.5.29-.29.85-.16,1.4l-.45.26-1.61-2.82.46-.26a2,2,0,0,0,2.11.59l8.7-1.83Zm-5.06-7.69a4.49,4.49,0,0,1,.62,1,4.32,4.32,0,0,0,.44.84,3.66,3.66,0,0,0,1,.72l-2.28,2.85-.5-.39c.64-1.46,1.27-3.3.3-4.52-1.25-1.56-3.59-.76-5.11.45-2,1.6-3.85,4.29-2.28,6.27a3.19,3.19,0,0,0,3.5.81l.18.55a4.56,4.56,0,0,1-5.26-1.17c-1.83-2.29-.88-5.23,1.55-7.18C133.13,36,136.81,35,138.73,37.45Zm-11.6-11.53,2.8,2.57-.35.39-.75-.51L123.63,34a2.67,2.67,0,0,0,.13,3.7,2.58,2.58,0,0,0,3.86-.13l4.31-4.7a1.37,1.37,0,0,0-.09-2l.35-.39,2.59,2.37-.35.39a1.37,1.37,0,0,0-2,.09l-4,4.39c-1.35,1.47-3.21,2.29-5.48.2-1.81-1.66-2.5-3.43-.8-5.29L127.36,27l-.58-.71Zm-9.78-6.56,3.7,2.41c3.15,2,2.62,5.44,1.2,7.63s-4.31,4-7.46,2L111.1,29l.29-.44.83.38,5.54-8.52-.68-.6ZM102.91,24.8l.88.24,4.1-9.3-.77-.48.21-.48,5.67,2.5a3.57,3.57,0,0,0,1.49.39L113.84,21l-.61-.12c0-2.08-.49-3.15-2.7-4.13a2.47,2.47,0,0,0-.82-.22l-1.77,4,.6.26c1,.46,1.62.14,2.39-1l.48.21-1.69,3.84-.48-.21c.29-1.31.13-2-.91-2.41l-.6-.26-2.12,4.8a2.47,2.47,0,0,0,.71.46c2.17,1,3.55.4,5.18-1.06l.5.36-2.25,3.06a3.59,3.59,0,0,0-1.3-.84l-5.78-2.55Zm-11.7-2.87.91.06L94.21,12l-.86-.31.11-.51,5.82,1.22a3.57,3.57,0,0,0,1.54.07l.16,3.62-.64,0c-.6-2-1.14-3.19-3.34-3.65a2.46,2.46,0,0,0-.84,0l-.94,4.46.95.2c1.06.22,1.55-.46,1.89-1.36l.51.11-.85,4.06-.51-.11c.09-1.14-.09-2-1.15-2.18l-.95-.2-1,5,.86.31-.11.51-3.72-.78ZM86.52,10.34c3.06.17,4.67,3.05,4.49,6.24-.15,2.73-2.36,5.86-5.16,5.7-3.06-.17-4.67-3.05-4.49-6.25C81.51,13.31,83.72,10.18,86.52,10.34ZM66.69,11.85a3.57,3.57,0,0,0,1.54,0l5-.83a3.57,3.57,0,0,0,1.46-.49L76,13.84l-.5.21c-.88-1.4-1.87-2.57-3.7-2.27l1.67,10.16.91,0,.09.52-3.75.62-.09-.52.87-.28L69.86,12.11c-1.83.3-2.39,1.72-2.77,3.33l-.54,0ZM57.55,14.9,65.21,21h0l-2.06-6.11c-.29-.87-.77-.9-1.58-.75l-.17-.5,3.08-1,.17.5a1.32,1.32,0,0,0-.75,1.74l3.13,9.28-.73.25L57.48,17.4h0l2.3,6.84a1.37,1.37,0,0,0,1.77.88l.17.5-3.32,1.12-.17-.5A1.49,1.49,0,0,0,59,24.31l-2.31-6.87a1.5,1.5,0,0,0-1.83-1.08l-.17-.5Zm-7.2,3.15a3.57,3.57,0,0,0,1.23-.94l2.24,2.58-.47.4c-1.66-1.25-2.79-1.56-4.91-.42a2.46,2.46,0,0,0-.67.51l2.08,3.87.58-.31c1-.53,1.11-1.19.72-2.47L51.6,21l2,3.7-.46.25c-.85-1-1.46-1.3-2.46-.77l-.58.31,2.48,4.62a2.47,2.47,0,0,0,.8-.28c2.1-1.12,2.5-2.55,2.35-4.74l.6-.17,1,3.65a3.58,3.58,0,0,0-1.46.5l-5.56,3-.25-.46.73-.54-4.8-9-.86.31L44.89,21ZM36.07,27.52,41.89,31l-2-6.46,2.31-1.84.33.41-.62.66,6.6,7.74.79-.46.33.41-3,2.39-.33-.41.62-.66-5.88-7,0,0,2.38,7.78-.33.27-6.94-4.11,0,0,4.66,6.16a1.26,1.26,0,0,0,2,.34l.33.41-2.64,2.1L40,38.36a1.43,1.43,0,0,0,0-2.05l-5.19-7-.79.46-.33-.41Zm-8.89,9,3.39-3.83a3.58,3.58,0,0,0,.83-1.31l3.08,1.76-.25.48c-1.57-.53-3.07-.81-4.3.58l7.72,6.82.7-.59.39.35-2.52,2.85-.39-.35.5-.76-7.72-6.82c-1.23,1.39-.77,2.85,0,4.34l-.45.31L26,37.54A3.57,3.57,0,0,0,27.18,36.56ZM22,43.77c1.17-1.82,2.84-3.61,5-2.2a2.93,2.93,0,0,1,.81,3.62l5.78.5.6-.69.44.28-1.51,2.34L26.83,47l-.61,1,4.22,2.71L31,50l.44.28-2.05,3.2L29,53.2l.38-.83-8.55-5.49-.6.69-.44-.28ZM16.94,53l11.42,1,.54-.75.48.21-1.55,3.6-.48-.21.18-.91-3.06-.28-1.54,3.58,1.24,1.07a2.27,2.27,0,0,0,.62.39c.53.23.85-.28,1.22-.71l.48.21-1.29,3L24.71,63a2,2,0,0,0-.8-2l-6.69-5.86H16.17Zm-3.36,9.78c.6-2.18,1.93-4.14,4-3.57,2.59.72,2.46,3.39,1.8,5.79l-.21.74L23.65,67l.37-.83.51.14L23.5,70,23,69.81l.11-.9-9.8-2.71-.37.83-.51-.14Zm-2,7.47L15,69.88l.06.62c-2,.65-2.87,1.4-3.15,3.79a2.48,2.48,0,0,0,0,.85l4.37.51.08-.65c.13-1.12-.34-1.59-1.62-2l.06-.52L19,73l-.06.52c-1.33.11-1.9.46-2,1.58l-.08.65,5.21.61a2.48,2.48,0,0,0,.23-.82c.27-2.36-.67-3.51-2.55-4.64l.2-.59,3.59,1.24A3.58,3.58,0,0,0,23.08,73l-.73,6.27-.52-.06,0-.91-10.1-1.17-.23.88L11,77.95l.72-6.16A3.57,3.57,0,0,0,11.6,70.25Zm.18,19.7-.52,0-.19-4.41c-.16-3.75,2.9-5.3,5.51-5.41s5.79,1.16,6,4.91l.19,4.41-.52,0L22,88.6,11.87,89ZM21.86,103.9l-2.25-1.67-2.25,1.67,0,0,.89-2.7-2.3-1.69v0h2.82l.85-2.65h0l.83,2.65h2.83v0L21,101.18l.89,2.7Zm7.22,23-.32-.41,2.43-7.19v0l-3.84,3a.93.93,0,0,0-.16,1.32l-.28.22L25.43,122l.28-.22a1,1,0,0,0,1.42.09l3.86-3a1,1,0,0,0,.3-1.35.92.92,0,0,0-1.27-.29l-3.43,2.1a2.33,2.33,0,0,1-3.6-.89c-.87-1.42-1-2.7.47-3.59l4.44-2.72-.24-.57.3-.19,1.34,2.19-.3.18-.39-.47L24.17,116a1.81,1.81,0,0,0-.61,2.42,1.74,1.74,0,0,0,2.53.63l3.68-2.25a.93.93,0,0,0,.31-1.3l.3-.18,1.16,1.9h0l1.25,1.61L30.65,125v0l3.43-2.68c.49-.38.4-.69.12-1.18l.28-.22,1.35,1.73-.28.22a.9.9,0,0,0-1.28-.09Zm3.16,3.21-1.75-1.89.26-.24.48.39,5-4.66-.35-.51.26-.24,1.75,1.89-.26.24-.48-.39-5,4.66.35.51Zm3.88,3.75-1.88-1.75.24-.26.51.35,4.73-5.1c-.92-.85-1.91-.56-2.93-.1l-.2-.31,2-1.39a2.41,2.41,0,0,0,.64.82l2.53,2.35a2.42,2.42,0,0,0,.87.58l-1.24,2.05-.32-.18c.38-1,.6-2.06-.32-2.91L36,133.13l.39.48Zm5.54,4.46-3.4-2.57.21-.28.54.3,4.14-5.48-.43-.44.21-.28,3.34,2.52a2.41,2.41,0,0,0,.92.49l-.95,2.1-.38-.18a2.56,2.56,0,0,0-1.13-3.13,1.67,1.67,0,0,0-.5-.27l-1.79,2.37.35.27c.61.46,1,.34,1.72-.26l.28.21L43.09,136l-.28-.21c.39-.81.38-1.26-.23-1.72l-.35-.27-2.14,2.83a1.67,1.67,0,0,0,.4.41,2.85,2.85,0,0,0,3.57.1l.27.32-2,1.66A2.42,2.42,0,0,0,41.67,138.33Zm9.8,1.65c-.91,1.51-2.81,2.83-5,1.53L43.92,140l.18-.3.57.24L48.21,134l-.48-.39.18-.3,2.55,1.53C52.65,136.17,52.37,138.47,51.47,140Zm8.3,1.83-.4-.06c0-.92-.19-2.21-1.19-2.63a1.15,1.15,0,0,0-1.64.55c-.85,2,3.38,2.66,2.19,5.48a2.33,2.33,0,0,1-3.14,1.18,12.83,12.83,0,0,1-1.53-1,2.1,2.1,0,0,0-.73-.1l.53-2.34.41.11a3.14,3.14,0,0,0,1.56,3,1.39,1.39,0,0,0,1.81-.69c.81-1.93-3.29-2.67-2.09-5.52a2.07,2.07,0,0,1,2.75-1,2.45,2.45,0,0,1,.67.4,2,2,0,0,0,.51.35,1.49,1.49,0,0,0,.79.08Zm3.27,7L60.58,148l.11-.34.61.1,2.06-6.64c-1.2-.37-2,.32-2.68,1.17l-.31-.19,1.16-2.1a2.42,2.42,0,0,0,.93.46l3.3,1a2.41,2.41,0,0,0,1,.15l-.23,2.39-.36,0c-.11-1.11-.35-2.12-1.55-2.49l-2.06,6.64.56.27Zm8.59,2L69,150.24l.07-.35h.62l-.23-2.06-2.58-.54-.54,1a1.54,1.54,0,0,0-.18.46c-.08.38.3.53.63.71l-.07.35-2.15-.45.07-.35a1.34,1.34,0,0,0,1.24-.8l3-5.22-.14-.7,1.48.23.87,7.7.57.25ZM78.18,146c-.32-1.07-.75-2-2-2.15l-.77,6.91.6.16,0,.35L73.42,151l0-.35.62,0,.77-6.91c-1.24-.14-1.87.68-2.41,1.66l-.34-.13.74-2.28a2.42,2.42,0,0,0,1,.28l3.44.38a2.41,2.41,0,0,0,1-.05l.22,2.39Zm6.11,5.74a2.41,2.41,0,0,0-1-.17l-4.26,0v-.35l.61-.08.05-6.87-.61-.09v-.35l4.19,0a2.42,2.42,0,0,0,1-.16l.49,2.25-.41.09a2.56,2.56,0,0,0-2.78-1.84,1.68,1.68,0,0,0-.57.08l0,3h.44c.76,0,1-.35,1.23-1.23H83l0,2.84h-.35c-.17-.89-.44-1.24-1.21-1.25H81l0,3.54a1.67,1.67,0,0,0,.56.09,2.85,2.85,0,0,0,2.93-2l.41.09Zm4.56-.3a12.83,12.83,0,0,1-1.83-.19,2.12,2.12,0,0,0-.69.25l-.63-2.31.41-.09a3.14,3.14,0,0,0,2.77,1.9,1.39,1.39,0,0,0,1.27-1.46c-.18-2.09-4.15-.82-4.43-3.9a2.07,2.07,0,0,1,1.94-2.21,2.44,2.44,0,0,1,.78,0,2,2,0,0,0,.62.07,1.48,1.48,0,0,0,.74-.3l.61,2.26-.38.13c-.47-.79-1.2-1.86-2.28-1.77a1.15,1.15,0,0,0-1.19,1.25c.19,2.17,4.23.77,4.5,3.82A2.33,2.33,0,0,1,88.85,151.41Zm9.52-1.53c-2,.47-3.61-1.09-4.1-3.2-.42-1.8.42-4.25,2.26-4.68,2-.47,3.61,1.09,4.1,3.2C101.06,147,100.22,149.45,98.37,149.88Zm7.48-8.13c-1-.94-1.77-1.45-3.2-1a1.67,1.67,0,0,0-.51.27l1,2.91.62-.21c.69-.24.74-.81.63-1.45l.34-.12.91,2.65-.34.12c-.34-.69-.73-1.11-1.42-.87l-.62.21,1.12,3.25.6-.11.12.34-2.43.84-.12-.33.55-.28-2.24-6.49-.61.11-.11-.34,3.8-1.31a2.41,2.41,0,0,0,.92-.49l1.35,2Zm8.78,1.93-.16-.32L115,143l-1.46-1.47-2.35,1.19.18,1.09a1.55,1.55,0,0,0,.15.47c.18.35.56.22.94.16l.16.32-2,1-.16-.32a1.34,1.34,0,0,0,.47-1.4l-.93-5.94-.54-.46,1.3-.75,5.49,5.47.6-.16.16.32Zm7.3-4.4-.2-.3.46-.41-3.55-5h0l1.15,5.38-.24.16-4.43-3.18h0l2.77,4.42a.85.85,0,0,0,1.31.34l.2.3-1.9,1.26-.2-.3a1,1,0,0,0,.12-1.38l-3.09-5-.56.26-.2-.3,1.68-1.12,3.72,2.65-1-4.47,1.66-1.1.2.3-.46.41,4,5.6.56-.26.2.3Zm6.49-5.06L125.16,137l-.23-.27.41-.46L120.9,131l-.52.33-.23-.27,3.2-2.71a2.41,2.41,0,0,0,.68-.79l1.84,1.39-.26.33a2.56,2.56,0,0,0-3.3.42,1.67,1.67,0,0,0-.37.43l1.92,2.27.34-.29c.58-.49.57-.94.13-1.73l.27-.23,1.83,2.16-.27.23c-.71-.56-1.15-.65-1.73-.16l-.34.29,2.29,2.71a1.67,1.67,0,0,0,.49-.3,2.85,2.85,0,0,0,.89-3.46l.37-.2,1.2,2.27A2.41,2.41,0,0,0,128.42,134.22Zm5.44-5.34-4.14-1.21-.53.55,2.45,2.34.49-.38.26.24-1.78,1.86-.26-.25.36-.5-5-4.75-.49.38-.26-.25,2-2c1-1.06,2.35-2,3.63-.81a2,2,0,0,1,.07,2.51l3.77,1.07.49-.38.26.24Zm1.74-2-.27-.22.32-.53-5.32-4.34-.45.42-.27-.22,1.62-2,.27.22-.32.53,5.32,4.34.45-.42.28.22Zm4.3-5.36c-1.13,1.63-3.22,1.58-4.94.38-1.57-1.09-2.87-3.3-1.69-5a3.06,3.06,0,0,1,.55-.6,2.92,2.92,0,0,0,.46-.45,2.49,2.49,0,0,0,.27-.8l2.28.92-.16.4c-1.07-.13-2.38-.18-3,.68-.77,1.11.2,2.47,1.28,3.22,1.42,1,3.52,1.66,4.5.26a2.16,2.16,0,0,0-.15-2.42l.32-.23A3.08,3.08,0,0,1,139.9,121.53Zm3.91-6.7-.31-.17.18-.6-2-.39L140.36,116l.76.8a1.53,1.53,0,0,0,.39.3c.34.19.59-.13.86-.4l.31.17-1.06,1.92-.31-.17a1.34,1.34,0,0,0-.4-1.42l-4.11-4.38-.71-.07.66-1.35,7.61,1.43.41-.47.31.17Zm5.06-15.34-2.28,1.69.88,2.7,0,0-2.25-1.67-2.25,1.67,0,0,.89-2.7-2.3-1.69v0h2.82l.85-2.65h0l.83,2.65h2.83ZM152,88.31c.92,0,1.12-.39,1.27-1.21l.52,0-.14,3.24-.52,0A1.33,1.33,0,0,0,151.79,89L142,88.59l0-.77,9.64-5.76v0l-7.21-.32A1.37,1.37,0,0,0,143,83l-.52,0,.16-3.51.52,0A1.49,1.49,0,0,0,144.69,81l7.24.32A1.5,1.5,0,0,0,153.6,80l.52,0L154,83l-8.41,5v0Z"/>
      <path class="cls-3" d="M18.9,64.82c.43-1.56,0-3-1.77-3.49A2.3,2.3,0,0,0,14,63.16a4.08,4.08,0,0,0-.14,1.12l4.68,1.3A3,3,0,0,0,18.9,64.82Z"/>
      <polygon class="cls-3" points="69.05 143.57 67.18 146.87 69.47 147.35 69.07 143.57 69.05 143.57"/>
      <polygon class="cls-3" points="110.47 138.45 111.08 142.2 113.16 141.14 110.49 138.44 110.47 138.45"/>
      <path class="cls-3" d="M85.89,21.63c1.41.08,2.76-1.42,3-5.17.23-4-.73-5.38-2.37-5.47-1.41-.08-2.76,1.42-3,5.17C83.29,20.19,84.25,21.54,85.89,21.63Z"/>
      <path class="cls-3" d="M114.83,30.79c1.58,1,3.32.94,5.61-2.57s1.66-5.14.08-6.17a4.11,4.11,0,0,0-1.09-.55L113.89,30A4.13,4.13,0,0,0,114.83,30.79Z"/>
      <path class="cls-3" d="M96.63,142.43c-.93.22-1.52,1.45-.94,3.92.62,2.65,1.5,3.35,2.58,3.1.93-.22,1.52-1.45.94-3.92C98.59,142.87,97.71,142.18,96.63,142.43Z"/>
      <path class="cls-3" d="M16.66,82.32c-4.19.18-5.15,1.64-5.06,3.52A4.12,4.12,0,0,0,11.78,87l10.16-.44A4.1,4.1,0,0,0,22,85.38C21.93,83.5,20.86,82.13,16.66,82.32Z"/>
      <path class="cls-3" d="M50.12,135.06a2.77,2.77,0,0,0-.75-.35l-3.53,5.89a2.78,2.78,0,0,0,.66.5c1.09.66,2.26.56,3.72-1.87S51.21,135.72,50.12,135.06Z"/>
      <polygon class="cls-3" points="137.43 112.85 140.03 115.6 141.16 113.56 137.44 112.83 137.43 112.85"/>
      <path class="cls-3" d="M147.41,71.22c-4,.49-5.16,1.67-5,3.3.17,1.4,1.89,2.46,5.62,2,4-.49,5.16-1.67,5-3.3C152.85,71.83,151.14,70.77,147.41,71.22Z"/>
      <polygon class="cls-3" points="23.76 55.58 18.17 55.05 18.16 55.08 22.39 58.76 23.76 55.58"/>
      <path class="cls-3" d="M127.12,125.22c-.15.15-.31.37-.47.57l2.28,2.18.34-.36c1-1,1-1.83.21-2.56A1.54,1.54,0,0,0,127.12,125.22Z"/>
      <path class="cls-3" d="M26.18,47.07c1.16-1.81.9-2.93-.42-3.78s-2.65-.24-3.39.92c-.17.26-.34.62-.52,1l3.93,2.52Z"/>
      <polygon class="cls-3" points="142.62 46.76 142.61 46.73 137.12 47.91 138.84 50.91 142.62 46.76"/>
    </g>
    <g>
      <path class="cls-4" d="M84.1,118.62l0,0v-.08Z"/>
      <path class="cls-4" d="M85.2,120.09a4.23,4.23,0,0,1-.78-.5c0,.15-.1.32-.16.49a4.57,4.57,0,0,0,.82.48A3.66,3.66,0,0,0,85.2,120.09Z"/>
      <path class="cls-4" d="M84.27,121.89a4.29,4.29,0,0,0,.32-.4,3.75,3.75,0,0,1-.8-.43c-.08.14-.17.27-.27.41A4.27,4.27,0,0,0,84.27,121.89Z"/>
      <path class="cls-4" d="M62.88,40.76c1,.27.66-.17,0,0Z"/>
      <path class="cls-4" d="M62.73,40.71l.15,0h0Z"/>
      <path class="cls-4" d="M82.56,119.88a9.47,9.47,0,0,0,.59-.88c-.13-.16-.2-.28-.21-.29l.12-.08h-.25a9,9,0,0,1-.55.84C82.35,119.6,82.45,119.73,82.56,119.88Z"/>
      <path class="cls-4" d="M83.14,121.19a4.65,4.65,0,0,0,.27-.41,6.19,6.19,0,0,1-.85-.9l-.31.39A6.42,6.42,0,0,0,83.14,121.19Z"/>
      <path class="cls-4" d="M83.78,121.07a6.09,6.09,0,0,0,.47-1c-.14-.1-.27-.21-.38-.31a5.54,5.54,0,0,1-.46,1A4.68,4.68,0,0,0,83.78,121.07Z"/>
      <path class="cls-4" d="M84.56,119a3.57,3.57,0,0,1-.42-.36c0,.14-.06.35-.12.59a5.2,5.2,0,0,0,.4.35C84.48,119.38,84.53,119.18,84.56,119Z"/>
      <path class="cls-4" d="M84.28,118.46l-.12,0v.09Z"/>
      <path class="cls-4" d="M82.25,120.27l-.3-.4a7.8,7.8,0,0,1-.66.71c.07.15.15.29.24.44A7.94,7.94,0,0,0,82.25,120.27Z"/>
      <path class="cls-4" d="M82.26,119.46a7.55,7.55,0,0,1-.5-.85l-.16,0-.09,0,.12.1-.23.24a8,8,0,0,0,.54.9Z"/>
      <path class="cls-4" d="M85.2,120.09a3.4,3.4,0,0,0,.45.18,4.24,4.24,0,0,0,.09-.59l-.47-.22A3.66,3.66,0,0,1,85.2,120.09Z"/>
      <path class="cls-4" d="M83.41,122.63a3.64,3.64,0,0,1-.67-.34,4.18,4.18,0,0,1-.41.3,4.05,4.05,0,0,0,.75.43l-.08-.13Z"/>
      <path class="cls-4" d="M83.41,122.63a3.9,3.9,0,0,0,.58.17,5.17,5.17,0,0,0,.77-.74,3.69,3.69,0,0,1-.49-.17A5,5,0,0,1,83.41,122.63Z"/>
      <path class="cls-4" d="M84.59,121.5a3.14,3.14,0,0,0,.48.14,4.22,4.22,0,0,0,.45-.91,3.89,3.89,0,0,1-.45-.17A3.77,3.77,0,0,1,84.59,121.5Z"/>
      <path class="cls-4" d="M80.93,120.89l.36-.32a6.28,6.28,0,0,1-.42-1.11l-.4.31A6.79,6.79,0,0,0,80.93,120.89Z"/>
      <path class="cls-4" d="M81.95,122.26a3.88,3.88,0,0,1-1,.4,3.68,3.68,0,0,0,.45.38,4.19,4.19,0,0,0,1-.46A4.21,4.21,0,0,1,81.95,122.26Z"/>
      <path class="cls-4" d="M79.4,119.09l-.46.24c0,.22.07.46.13.71l.45-.22C79.47,119.55,79.43,119.31,79.4,119.09Z"/>
      <path class="cls-4" d="M80.34,119.27a6.59,6.59,0,0,1-.81.54c0,.16.07.32.12.49a6.7,6.7,0,0,0,.84-.52C80.42,119.6,80.37,119.43,80.34,119.27Z"/>
      <path class="cls-4" d="M79.64,120.3l-.45.21a6.8,6.8,0,0,0,.43,1.14,3.67,3.67,0,0,0,.45-.19A6.5,6.5,0,0,1,79.64,120.3Z"/>
      <path class="cls-4" d="M84.65,118.47a5.06,5.06,0,0,1-.08.54,5.42,5.42,0,0,0,.71.44,3.5,3.5,0,0,0,0-.57,4.27,4.27,0,0,1-.68-.5l-.24.06Z"/>
      <path class="cls-4" d="M80.93,120.89a4.81,4.81,0,0,1-.86.56q.11.22.23.42a5.23,5.23,0,0,0,.87-.56C81.09,121.18,81,121,80.93,120.89Z"/>
      <path class="cls-4" d="M83.14,121.19a4,4,0,0,1-.79.8,3.66,3.66,0,0,0,.4.3,4.53,4.53,0,0,0,.77-.81Z"/>
      <path class="cls-4" d="M81.53,121l-.36.3a4.8,4.8,0,0,0,.77.94,3.68,3.68,0,0,0,.41-.27A4.23,4.23,0,0,1,81.53,121Z"/>
      <path class="cls-4" d="M114.94,105.34c-.41-1.67.77-1.65,1.82-2.68.38-.38,1.44.59,2,.1.84-.69,1.62-1.57.91-2.9-.16-.3,1-.59,1.42-1.18a2.51,2.51,0,0,0,2.53.19c1.65-.51,1.94-2.52,2.45-4,1.45,1.36,2.81.34,3-1.09.2-1.9-.65-1,.06-2.08.87-1.29.68-4.42-1.09-5.19.61-1.13,1.09-1,2-1.58a3,3,0,0,0,.65-.53c1-1.06.15-2.17,1.16-3.32a3.51,3.51,0,0,0,.66-1.8l.1.14,4.87-4.62q-.19-1.61-.47-3.19l-5.81,5.92,0,.05a4.73,4.73,0,0,0-1.74-.42c-.85,0,.29-2-1-2.63,1.46-1.29-.17-3.31.23-4.76.18-.64.52-1.32,0-2-.9-1.21-2.34-.67-2.4-2.56a1.22,1.22,0,0,0-.39-.67l5.92-8.19q-.84-1.67-1.79-3.27L124.54,62c-.67-.22-1.5-.32-2.13-.59.83-.8.07-1.64-.55-2.17l-.09-.08a2.2,2.2,0,0,1,1.61-.64c-.36-1.05.78-1.55.56-2.55-.31-1.41-1.8-1.73-3.12-1.56-.24,0-.45.52-.64.5-1.35-.14-.54-1.15-.71-2.16,0-.25-.37-.44-.58-.65,1.69-.88.76-3.14-.16-4a2.25,2.25,0,0,0-1.11-.62l2.85-6.35q-1.3-1.22-2.67-2.37l-4,9.2.21.28c-.26.13-.55-.2-.52-.23,1.27-1.22.51-3.18-.06-4-.79-1.18-3.31-.45-3.54,1.4-.76-.25-1.06-1.14-1.93-1.3a.59.59,0,0,0-.64.33c-.32-.54-.15-.84-.56-1.29,1.31-.11,1.8-2.11.64-3.63-.76-1-3.38-1.7-4.25.1-.32-.32-.62-.83-1-.87l-.4,0,1.9-8.47q-1.63-.68-3.31-1.25L99,37.61a1,1,0,0,0-.34.32c-.36-1.84-1.47-4.18-3.48-3.65-1.24.33-1.51,2.34-2.69,2.85-.27.12-.94-.69-1.51-.42-.82.39-1.08,1.31-1.92,1.82-.55-1.13-1.59.26-1.8-.64-.27-1.21,1.08-3-.53-3.27a10.71,10.71,0,0,0-2.64-.28L84.21,26c-.58,0-1.17,0-1.75,0l-1.29,0v8.94l-.52.17c-1.33.46-1.89,2.75-3.07,1.71-1-.85-1.22-2.44-2.45-3.3-.5-.35-1.15,0-1.5.33-.78.72-1.16,1.74-1.94,2.55-.51.52.82,1.5-.08,1.75-.74.2-1.36.32-1.52,1.11a2.39,2.39,0,0,0,.52,2.3c.17.18-.4.57-.86.61-1.78.13-1.17.74-1.08-1.71-.21,0-.56-1.52-.76-1.59l-.09,0-.91-10.64q-2.1.61-4.13,1.39l2,9.28a1.69,1.69,0,0,0-.84.68c-.62,1,.28,1.59-1,1.23a1.45,1.45,0,0,0-.29.11A3.18,3.18,0,0,0,60.76,43c-.23.64.44,2-.41,2.34s-.89,1.09-.92,2.2c-.37,0-.75,1.13-.76.32,0-1,.13-1.86-.61-2.48s-2.12-1.56-2.82-.33c-.24-1.64-1.5-2-2.91-2.15-.75-.09-1.37.6-1.67,1.47l-2.26-6.72q-1.94,1.52-3.74,3.2l4,7.27c-.19,0-.37.06-.53.07a.44.44,0,0,1-.32.59c-1,.06-2.16-.06-2.12,1s.58,1.81.59,2.9c0,.22.52.45.49.63-.08.58-.79.19-1.19.37-1,.44,0,1.81-.71,2.08s-1,1.44-1.49,1.26c-1.12-.46-2.57.31-2.46,1.1a9,9,0,0,1,.11,1.07,2.58,2.58,0,0,1,0,.54c-.14.75-.76.81-1.33,1L34.91,53q-1.06,1.76-2,3.6L38,63l.24-.3c-.06.12-.12.23-.18.35a2.41,2.41,0,0,0,.94,3c-.76.57-1.09.87-.64,1.72a9.22,9.22,0,0,0,1.85,2c-.67.66-1.81-.5-2.14.36-.18.49-.11,1-.43.92-.69-.12-1-.55-1.92-.37a2.9,2.9,0,0,0-2.14,1.7c-.48,1.19-.31,2.32,1.51,3.46.55.34,1.71.57,1.56.71s-.22.5-.26.33c.11,1.17,1.37,1.19,1.76,1.9.21.37.08.64-.53.81a5,5,0,0,0-.66.24L28,71.08q-.32,1.7-.54,3.43l8.12,7.38a.75.75,0,0,1-.17.49A6,6,0,0,0,34.08,85a2.2,2.2,0,0,0,.35,1.76,2,2,0,0,0,2.19.05c.17-.14,1-.81,1.18-.56.86,1.3-.88,1.87.92,4.15.68.86.11,1.64,1.12,2.21-2.32.55-1.76,2.76-1,4s3.74,1,4.76-.59c.71.5.75,1.17,1.37,1.75-.21.21-.53.4-.59.65a3.47,3.47,0,0,0,.61,3l-17.34-12q.24,1.65.57,3.26l18.24,12.06a3.44,3.44,0,0,1,.58,1.68c.05.75,1.13,1.33,1.81,1.44a11.73,11.73,0,0,1,2.83.9c.76.31,0,1.47.44,1.71.89.53,1.77,1.39,2.8,1.32.66,0,1-.62,1.45-1.14l7.55,5.2a19.81,19.81,0,0,0-1.57,2.66L33.4,107q.62,1.19,1.3,2.34l27.14,10.23A21,21,0,0,0,60.76,123l-18.7-3.81q.88.94,1.81,1.84l16.67,3.08a23.68,23.68,0,0,0-.32,3.91c-.91.37-1.83.71-2.77,1a10.8,10.8,0,0,1-3.48.23c-.1,0-.21.18-.32.28a58.52,58.52,0,0,0,17.71,6.91,57.44,57.44,0,0,0,25.7-.71c3.92-.94,7.28-2.59,10.84-4.1,1.51-.64,3.34-1.07,4.24-2.73-2.75.33-5.2-.82-7.65-1.92a19.37,19.37,0,0,0-.31-3.18l17-2.88q1-1,2-2.05L104,122.94a19.31,19.31,0,0,0-1-3l27.89-11.82q.78-1.4,1.48-2.85l-29.63,14a20,20,0,0,0-1.7-3l10.93-7c.57.19,1.65-.42,2.34-.11s.25-1,.61-1.6a1.55,1.55,0,0,0,.08-.22l21.41-13.64q.4-1.72.68-3.48L115,105.51Zm8.59-7.49s-1.57,0-1.33-1.81c0,0-1.91,1.43-1.21-2-.06.27-.49,1.68-2-6.43a16.09,16.09,0,0,1,4.7,9.52l.36-.48s.72-4.46-4.1-9.16c0,0,.72-2.17,2.29-.36a2.2,2.2,0,0,1,.48,1.93s2.77.36,2,3C124.73,92.06,125.21,97.6,123.52,97.84Zm3.86-3.5s-1.93.48-1.2-4.1c0,0-1.69.12-2-2.41,0,0-.24,1-2.17-2a10.65,10.65,0,0,1,6,6.75S128.59,94.59,127.38,94.35Zm1-5.79-.36,1s1-.48.72,1l-.24.36-3-4.22S128,86.39,128.35,88.56Zm.72-9.89s2.53-1,2.77.6l-.12,1-.48.6a5.81,5.81,0,0,1-1.57,2.29c1.21,1.81-4.1,2-4.1,2,.12,2.65-6.15-1.57-6.15-1.57s6.27,1.21,11-3.13l-2.17.48s-2,1.81-6.75,1.57c0,0,.84-3,3.5-1.69C125,80.84,127.5,76.14,129.07,78.67Zm-1.69-9.4s1,2.77.6,4A8.56,8.56,0,0,1,125.82,76s1.33.36-.12,1.93c0,0-1.08,1.09-1.08,1.69,0,0-2.77-1.08-4.34,2.77,0,0-2.77.12-3.13.12s6.87-2.53,9-9.64l-.48-.24a37.91,37.91,0,0,1-4.34,5.55c-1.57,1.33-1.81-2.17-.6-2.53,0,0-.24-3.86,1.57-3.25C122.32,72.41,125.69,66.14,127.38,69.27ZM119.31,69a68.42,68.42,0,0,1-2.89,7s-2.41-1-1-3c0,0-3.38-3.25.12-4.58a1.16,1.16,0,0,1,1.33.72s2.94-2.82,4.76-1.14c0-.14.06.06.06.06l-.06-.06a11.34,11.34,0,0,0-.06,1.62s1.69.6-.48,2.41l-1.93,1.57s1.93.6-.48,2.65c0,0,1,.6-2.17,3.13a15.35,15.35,0,0,0-.84,2.53l-.36-1.45S120.15,71.92,120,69Zm-9.67-1.66A12.22,12.22,0,0,0,112,68.55c1.93-1.33,1,3.5,1,3.5,2,0,1.54,2.91,1.37,3.75l.31.23c1.45,1.08-1.93,5.18-1.93,5.18C114,74.81,110.28,68.42,109.64,67.37Zm-2,9.37-1-.24c-1.93-.84-.72-3.5-.72-3.5l.36-.84c4.7,6.15,4.1,11,4.1,11-2.77-1.21-1-2.65-1-2.65C105.81,78.75,107.61,76.75,107.61,76.75ZM100.14,87.6c2.53.6,5.55-2.17,5.55-2.17,2.41,1.69-.24,1.81-.24,1.81C106.17,92.06,97.61,87,100.14,87.6Zm3.74,16.76c2.53,3.62-.6,4.1-.6,4.1.72,1-1.33,2.77-1.33,2.77a136.24,136.24,0,0,1,.36-14.83c3,3,.84,3.74.84,3.74C106.89,103,103.87,104.35,103.87,104.35ZM101,110.74c-1.81.24-1.21-2.41-1.21-2.41-1.93.6-.84-3-.84-3-1.93-.72,1.81-4.1,1.81-4.1l-.48-.6c-.84-.6,1.09-2.65,1.09-2.65C100.26,102.79,101,110.74,101,110.74ZM92.9,87.35c-1,2.77-2.53,1.21-2.53,1.21A7,7,0,0,1,89,91.81c-.24-2.89-2.53-2.17-2.53-2.17-.84-1.45,4.22-4,4.22-4a15.47,15.47,0,0,0,7.11-3.26c0,1.45-1.81,2.65-1.81,2.65C97.49,87.6,92.9,87.35,92.9,87.35ZM83.14,123.1a6.19,6.19,0,0,1-.84.06,7.64,7.64,0,0,1-.85-.05l-.09-.06-.12,0a5.24,5.24,0,0,1-.63-.13l0-.21.34-.08a4.25,4.25,0,0,1-.61-.78,4.25,4.25,0,0,1-.45.2,4.8,4.8,0,0,0,.64.85h0a3.2,3.2,0,0,1-1.25-.67h0a3.79,3.79,0,0,0,.62-.17c-.08-.14-.16-.28-.23-.43a3.14,3.14,0,0,1-.76.16h0a12.49,12.49,0,0,1-.26-.52,2.73,2.73,0,0,1-.08-.34c0-.07,0-.13,0-.2a4.5,4.5,0,0,0,.72-.23c0-.16-.09-.32-.12-.48a4.12,4.12,0,0,1-.63.22c0-.12,0-.23,0-.35a2.21,2.21,0,0,1,.08-.4l.43-.18c0-.18,0-.35-.06-.51l-.05,0,.05-.08v.05l.47-.25c0-.09,0-.17,0-.25h0l.23-.15,0,0,.08,0,.2.09h0a5.34,5.34,0,0,1-.55.38c0,.15,0,.33,0,.53a6.29,6.29,0,0,0,.8-.52c0-.09,0-.14,0-.15l.22,0h0l0,0h0l.08,0h0l.14,0h.05l.35.07.09,0h0c-.09.09-.23.23-.42.4,0,.16.07.34.12.53.23-.19.41-.36.54-.49l-.12-.24.23-.1-.07-.06-.1,0h.1l.16,0h0l.15,0h0l.58,0h1l-.25,0,0,0,.23.12-.14.25a5.94,5.94,0,0,0,.72.76c.06-.19.11-.36.15-.52a5.58,5.58,0,0,1-.58-.66h0l.4-.06.31,0h0l.4-.09h0l.1,0,.09,0,.1.05,0,0a2.11,2.11,0,0,1,.26.2l0,0a2.08,2.08,0,0,1,0,.25l.29.16a2,2,0,0,1,.21.49s0,.09,0,.14l.06,0h0a2.38,2.38,0,0,1,.05.49s0,.08,0,.12l-.19-.06a4.21,4.21,0,0,1-.13.46l.28.08c0,.08,0,.15-.05.23a2.9,2.9,0,0,1-.1.34,2.48,2.48,0,0,1-.14.33,3,3,0,0,1-.43-.06,4.55,4.55,0,0,1-.31.42l.42.09h0a2.56,2.56,0,0,1-.28.25l-.16.13a3.07,3.07,0,0,1-.38.2l-.19.09-.16,0-.19.15a4.14,4.14,0,0,1-.54.13l-.17-.07ZM75.79,89.77s-4.34-3.25-3-4.82c0,0-5.06-.6-4.1-3.5.08-.25.15-.46.2-.64l-.44.16s1-2,.44-.16l2-.69s1.21,1.69,2.53,1.57c0,0,2.53-.12,2.17,3.25a11.25,11.25,0,0,1,3.13,6.63s-3.86-3.62-4-6.63l-.6.12A6.19,6.19,0,0,0,75.79,89.77ZM71,103.15s.24,5.55-2.65,3.62c0,0,.6,2.53-1.93,2.53,0,0,2.17-2.41,1.33-5.06a6,6,0,0,0,1.45-6.15s1.21-.48,1.08-3c0,0,1.81,3.62.24,3.5C70.48,98.57,74.58,103.27,71,103.15Zm-7.23,8s-1.93-4.7-.24-6.15c0,0,3.38-.24,1.93-6.15,0,0,.12-3.74,1.93-5.55l.84,1.45s1.21,2.29-.72,3c0,0,2.53,4.58-1,6,0,0,.72,4.1-.84,4.7C65.66,108.45,65.78,111.1,63.73,111.1Zm-1.57-4.64c.78.66-.24,2.29-.24,2.29a2.48,2.48,0,0,1,.6,2.35c.84.36.66,1,.66,1-.66.18-.84-.9-.84-.9-1.63.3-.72-2.53-.72-2.53C59.87,107.55,62.16,106.46,62.16,106.46Zm5.91-18.14c-9.4,1.45-7-1-7-1-2.65.48-2.17-1.21-2.17-1.21C54.81,81.81,68.07,88.32,68.07,88.32Zm-13,5.79c-1.69-4.82,1.21-9.4,1.21-9.4l.48,1.69A1.76,1.76,0,0,1,56.5,89c3.13,3.13-.48,3.13-.48,3.13C56.74,93.62,55.05,94.11,55.05,94.11Zm-2.89-3.38,1.69-2.65s-.72,4.1.24,6.51c0,0-2.17,1.45-1.69-1C52.4,93.62,49.75,93.86,52.16,90.73ZM49.26,98c-2.17-3.62.72-5.79.72-5.79,1.69,2.65.72,3.13.72,3.13C51.92,96.76,49.26,98,49.26,98Zm.6-8.68a2.13,2.13,0,0,1,.3,1.51c-.15,1.07-2.25.2-2.89-.09.52.35-.13,1.3-.13,1.3a3.72,3.72,0,0,1-3.86.24c-.78-.78.18-1.57.18-1.57l-.54-.12c-.3-1.15,1.93-1.08,1.93-1.08.18,0,1.69-.24,1.69-.24a5.74,5.74,0,0,0-1.81,2.35h.42c.54-1.45,8-8.26,8-8.26.42.18-1.33,2.89-1.33,2.89C52,88.2,49.87,89.28,49.87,89.28Zm.84-29.41a1.16,1.16,0,0,1,2.17-.24c-4.26,3.65-2.3,13-2,14.46l0,.19,0-.19A25.16,25.16,0,0,0,49.51,70c-2.41-2.89-.24-5.06-.24-5.06C47.1,60.83,50.71,59.87,50.71,59.87Zm2.65,8.2s2.41.48-1.69,5.55c0,0-1.93-10.13,1.93-13.5,0,0,1.93.24.24,3.86C53.85,64,56.5,66.38,53.36,68.07ZM52.16,75.3c4.34-7.47,8.68-6.51,8.68-6.51-1.45,0-3.13,1.93-3.13,1.93,1.21,4.82-2.41,3.86-2.41,3.86C53.36,79.4,52.16,75.3,52.16,75.3ZM68,64.69c-.72.36-5.11.12-5.55.12-.84,0-1,.6-1.69.24a17.55,17.55,0,0,1-3.62-3.38c-1.09-1.33.36-3.5.36-3.5,2.53-3.5,3.62,2.41,3.62,2.41,4.07-2.2,3,1.93,3,1.93C66.5,62.16,68,64.69,68,64.69Zm3-11.33a9.93,9.93,0,0,0-1.45,6l.36-.24s2.17-8.8,6.39-9.4c0,0,1.81-.48,2.17-.24s-.6,7-1.93,3c0,0-1.33,6-2.77,2.53,0,0-1.57,5.55-2.77,3.38,0,0-.48,4.1-1.69,2.29,0,0-1.81-2.29-.24-3.74C69,57,66.75,56,71,53.36Zm14.83,3.38s2.41,1.45-.48,1.57c0,0,.12,1.93-2.53-.24,0,0,.12,2.17-3.5.36,0,0,2,1-3.86,4.34,0,0-.72.24-1.21,2.41,0,0,.07-10.89,8.8-8.65l.49-.39a9.28,9.28,0,0,0-5.42-.48s3.38-5.06,4.94-1.81a1.34,1.34,0,0,1-.36,1.09S86.15,54.32,85.79,56.73ZM96,70.24s-1.21,4.94.24,7.72c0,0-5.18-2.53-2.29-3.86C94,74.09,93.39,67,96,70.24Zm4-17.84c.12-1.21,1.45-.72,1.45-.72,5.06,2.65,3.13,4.94,3.13,4.94,1.57,1.45-2.17,3.62-2.17,3.62,1.45-2.77-.36-7.23-.36-7.23l-.48-.12c1.33,6-.48,7.59-.48,7.59-2-1.09-.48-2.29-.48-2.29-2.53-1.45,0-4.1,0-4.1C99.53,54.08,100,52.39,100,52.39Zm3,10s.3,0,.36-.12c2.92-4.46,4-.24,4-.24,2-1.21,2.89,1.09,2.89,1.09-7.23-1.93-11.33,1.33-11.33,1.33C101,59.27,103,62.4,103,62.4Zm8.44,1.81s1.57,1.69-2.29,1.45c0,0,.72,1.81-3.62.6,0,0,.36,2.29-5.18.12,0,0,2.17,1.08-4.58,1.45C95.8,67.82,100.26,61.32,111.47,64.21ZM95.32,79.88c-7.47-2.65-11.21,4.94-11.21,4.94l.12.6c5.67-8.08,13-3.74,13-3.74-4.82,2.77-4.94,1.08-4.94,1.08-.72,2.53-3.5,1.69-3.5,1.69-.6,3.25-3.62,1.93-3.62,1.93-2.65,1.33-1.93-1.08-1.93-1.08-2.53-2,1.33-3.86,1.33-3.86-1.21-3.13,3.5-2.77,3.5-2.77-.24-3.25,4.46-.6,4.46-.6C93.55,75.7,95.32,79.88,95.32,79.88Zm-4.82-9.52S89.65,74.21,84,73a7.74,7.74,0,0,1,6.39-4.34v-.72s-4.58.72-5.91,3c0,0-.12-2.41,2-2.53,0,0,.72-3.38,3.5-1.69,0,0,.6-.72,1.08-.48A7.37,7.37,0,0,1,90.49,70.36Zm-1.81-4.94A1.49,1.49,0,0,0,86.52,67a2.71,2.71,0,0,1-2.29,1.45l.84-1.93s2.77-3,5.55-3.62l.48,2.41S89.41,66.38,88.68,65.41Zm-5.42,3.38s-1.81,2.41,0,4.46l-.12.72S78.32,69.39,81.93,69c0,0-3.38-5.06,1.21-5.06,0,0,3.13-4.46,4.46-1.33,0,0,2.17-2.89,2.77-.36C90.37,62.28,83.74,64.21,83.26,68.79Zm-10.37-1s4.34-.24,3.86,2.41c0,0-.48,1.69-4.82,1.21,0,0,2.89,2.17-2.65,2.65,0,0,1.69,1.45-2.17,2.89,0,0-.24-9.16,7-7.72,0,0-8-3.62-8.44,7.23,0,0-2.89-4.34-.48-4.82,0,0,.48-6,3.13-3.13C68.31,68.55,70.72,64.45,72.89,67.82Zm-8.08.84s-1.69.48-.72,2.29c0,0-2.89,2.77,1.45,7.47,0,0-6.51-1.93-4.46-5.91,0,0,.72-1.08,1.09-1C62.16,71.56,60.72,68.43,64.82,68.67Zm-7.35,6.75.84-.36s1.69-2.77.72-4c0,0,.84-1.45,1.93-1.45,0,0-.72,1.08.24,1.69,0,0-4,2,.24,6.27C61.44,77.59,58.18,76.68,57.46,75.42ZM62.1,93.14c.36-.84.36-.72.36-.72s2-1.81,2,.9a12.43,12.43,0,0,0-3.25,4.82s-2.59-1.75-1.21-3a2,2,0,0,1,2-.36A2.54,2.54,0,0,1,62.1,93.14Zm3.62-.36s.72-.66.72.36c0,0-3.56,6.33-1.57,7.59,0,0-.06,4-2.53,2.83,0,0-.72,2.89-2.53,2.83,0,0-.24,1.87-1.33,1.69C58.49,108.09,58.55,102.06,65.72,92.78ZM78.44,79.4c-1.93,2.57-3.66-1.13-4-2,.52,1.66-4.89.31-4.89.31C72.41,76,71,75.3,71,75.3c5.79-2.65,9.89,5.79,8.2,1.93a6.35,6.35,0,0,0-5.31-3.85h0a2.86,2.86,0,0,0,2.9-1.46c1.93-.48.72,1.45.72,1.45,7.23.72,4.34,3.86,4.34,3.86C83.74,80.84,78.44,79.4,78.44,79.4ZM82.36,115c2.06-.08,2.23,2.65,2.23,2.65.06.72-5,.63-4.7-.36C80.39,115.51,80.79,115.08,82.36,115Zm3.44,9.34c.6-3.13,4-.84,4-.84,1.45-2.65,2.53.48,2.53.48,1.81-1.69,1.93.9,1.93.9a9.86,9.86,0,0,0-10.91,2.23C83.08,123.64,85.79,124.36,85.79,124.36ZM97.85,69.51l2.65-1.21c4.46.72-1,5.06-1,5.06,3-.72-1.08,7.35-1.08,7.35a.43.43,0,0,1-.36-.24A13,13,0,0,1,97.85,69.51ZM103.19,82c1,.77,1.68,1.65,1.57,1.87a2.14,2.14,0,0,1-1.27.78c-.56.11-.57.86-1.78,1.21C100.91,86.07,102.37,82.64,103.19,82Zm3.1.31s-4.22-1.81-2-3.13c0,0-2.89-1.45-1.21-2.77l1.33-.48s3.74,2.77,3.13,9.16C107.49,85.06,104.84,82.77,106.29,82.29Zm4.1-8.08s-5.91-3.38-1.69-4.7c0,0-1.21-3.5.36-2,0,0,3.5,8.08,2.65,10.25C111.71,77.71,107.13,74.33,110.38,74.21ZM125.55,64l.43.64A1.49,1.49,0,0,1,125.55,64ZM124,64s3,3.38,1.81,3.5c0,0-3.86,1.08-3.13-.84a8.17,8.17,0,0,1-5.18-.24s0,2.65-5.67-.24c0,0,7.72-3.62,11.69-1l.12-.6s-2.77-1.81-8.68-.36c0,0,1.93-4.34,3-2,0,0,4-2.29,3.38.24C121.35,62.4,125.45,62.16,124,64Zm-3-8.2s3.25-1.57.84,2.29a2.83,2.83,0,0,0-1,2s-1.81.24-4.46.84c0,0,2.77-4,4.46-4.1l-.48-.36s-2.77.72-2.89,1.45c0,0-.84-1.45.12-1.93S120.63,56.13,121,55.77Zm-5.55-6.27s3.74-1.81,2.41,2.17c0,0,2.17,3.38-1.93,3.62,0,0,2.41,2.77-2.17,3.86,0,0,1.57,2-1.93,3.62,0,0-1-2.41-.6-3.13s3-7.92,6-9.28l-.48-.48A22.82,22.82,0,0,0,110,60.59l-.84-1s-1.21-4.1,1-2.89c0,0-.48-7.35,2.41-4.34C112.55,52.39,113.16,47.69,115.45,49.5Zm-4.82-2.89s.6-2.17,1.57-2,1.21,1.33.72,3.13l-.36,1.21h.84l-1.81,1.69s.36-2-.36-2.29l.84-1.45-.36-.36-1.08,1.21Zm-1.09,1.09L109.42,49c2.89,0-.36,3.62-.36,3.62,2.29,1.69-2.29,5.91-2.29,5.91a26.42,26.42,0,0,0,1.33-10.25h-.48a33.6,33.6,0,0,1-.84,5.91C106.41,53.84,104,52,104,52c-.84-4.34,2.65-2.89,2.65-2.89-.6-1.45,0-2,0-2C108.34,43.84,109.54,47.69,109.54,47.69Zm-3.86-7-.6-.36a21.72,21.72,0,0,0-5.43,5.06s-1-4-.36-4.1c0,0,1.57-3.38,3.74-.6,0,0,.36-1.45,1.33-1.33s1.93-.36,2.41.48.48,2.65-1,3c0,0,1.85,1.56-2.29,2.65,0,0,3.62,2.17-3.62,5.42A5,5,0,0,1,98.81,49S103.75,41.54,105.68,40.7ZM97.61,57.82c3.13-.72-1.81,7.35-1.81,7.35C98.13,55.12,94.23,49,94.23,49h-.48c1.81,4.58,1.45,12.42,1.45,12.42-5.67-4.46-2.53-5.67-2.53-5.67a8.41,8.41,0,0,1-1.21-1.57c-2.53-3.86,1-3.38,1-3.38-.6-2,.6-1.81.6-1.81-.72-1.69,0-2.41,0-2.41,1.08-2.17,3.25,3.13,3.25,3.13,2.41-1.93.84,3.74.84,3.74C101.46,50.83,97.61,57.82,97.61,57.82ZM94.71,36.24s1.69-3,3,2c0,0,1.57,1.57.36,2.41a5.46,5.46,0,0,1-.84,4.94s1.69.6.36,2.29c0,0-1.33-1.33-1.81-1.69,0,0,1.81-6.39.36-9.52h-.48a19.78,19.78,0,0,1-.72,9,1.29,1.29,0,0,0-2.17-.24s1.21-1.33,0-2.17c0,0,2.41-1.93,1.21-2.89,0,0,.84-1.81-.12-2.89C93.87,37.57,93.87,36.24,94.71,36.24ZM89,40.34s1.81-4.1,3-2.65c0,0,1.81-.12.84,2.29,0,0,1.45,1.81-1.69,3.38,0,0,3.25,1.69-2.65,4.82,0,0,1.69,1.81-2,5.67a19.07,19.07,0,0,1,4.94-14.59h-.6s-5.3,3.25-5.55,11.81a14.54,14.54,0,0,1-2-4.94s1.33-1.93.36-2.53c0,0,3.25-1.81,1.93-3.62C85.55,40,88.44,38.17,89,40.34ZM82.44,35c-.06.06-.13.1-.19.17s-.06-.05-.09-.09Zm-3.15,3.26c1.21-2.89,2.65-1.81,2.65-1.81A3.82,3.82,0,0,1,84.1,35.4c1-.72,2.41.48,2.41.48.36,2.29-3,3.74-3,3.74,2,2.65-2.53,3.62-2.53,3.62,2.53.24-.84,3.5,0,4.1s-.72,2.89-.72,2.89l-.72-1.69c-2.77-8.08,5.18-11.45,5.18-11.45l-.6-.36c-3.5.48-5.91,5.06-5.91,5.06.48-1.69-.72-1.93-.72-1.93A2.67,2.67,0,0,1,79.28,38.29Zm-6.63.36s-1.08-3,.72-2.53c0,0,1-3.74,2.29-.48l.24,1.69a7.21,7.21,0,0,1,2.17.6,1.88,1.88,0,0,0-1.69,1.81s-1.08-.48-1.57.12c0,0-.36-3.38.12-3.62h-.6s-.72,3.13-.48,3.86a1.79,1.79,0,0,0-2,.6S70.48,38.41,72.65,38.65Zm3.62,3.13s1.33-1.08-.72-.36-6.87,5.18-6.87,5.18c-.48-3.5,2.53-3.62,2.53-3.62,1.33-3.13,3.13-2,3.13-2,6.39-2.53.24,3.86.24,3.86,3.13,1.81-3.38,3.5-3.38,3.5C75.3,49.38,67.59,54,67.59,54,67.83,47,76.27,41.79,76.27,41.79Zm-14.59,4C60.84,40.34,64,42.15,64,42.15a2.09,2.09,0,0,1,.36-1.81,1.13,1.13,0,0,1,.58-.75l0,.13,1.24-.34a4.73,4.73,0,0,1,.8.12c1.93,2.29-.36,4.46-.36,4.46l.24.36a2.68,2.68,0,0,1-.84,4.1c1.08,3-.72,4.46-.72,4.46a7,7,0,0,1,.24,4.1c-5.42-6.63,1.21-16.88,1.21-16.88l-.84.24c-3.38,2.53-4,10.61-4,10.61C59.15,47.09,61.68,45.76,61.68,45.76ZM52,43.84s2.65.12,2.89,2.29c0,0,1.81-1.57,2.29-.36a1.77,1.77,0,0,1-.72,2.53s1.61-.11,1,1.58c.16-.35.86-1,3.22,5.42,0,0-2.88-.78-8.08-10.37-.06-.1-.24.6-.24.6s2,5.25,4.45,7.83l.37.36-.37-.36c-.72-.7-2.28-2.17-2.64-2.17s-2.17,0-.48-1.21c0,0-3.5-.12-1.09-2C52.64,47.93,51,44.56,52,43.84Zm-1.52,4.58,0,.09-.05-.06Zm-2.22,1c.72-1.21,2,.72,2,.72,1-.6,1.33,1.93,1.33,1.93a6,6,0,0,1-3.74-1.45l-.36.48,2,1.45c0,.12-.24,0-.24,0-2.89.84-2-.84-2-.84C45.65,49.38,48.3,49.38,48.3,49.38ZM45.65,57c-.36-2.41,2.17-1.57,2.17-1.57.36-3.26,3.13-1.09,3.13-1.09,0-2.17,1.33-1.69,1.33-1.69,1.57.12,1.69,3.25,1.69,3.25-2.77-.24-8.56,1.81-8.56,1.81v.84c5.18-2,12.18-1.93,12.18-1.93a15.76,15.76,0,0,0-1.93,1.57c-1.69,1.45-4-.24-4-.24-2.29,3.5-4.1,1.33-4.1,1.33A2.75,2.75,0,0,1,45,60C42.25,58.27,45.65,57,45.65,57ZM42,58.31c.56-.33.91-.12,1.41.2.13.08,0,.32-.31.14s-.35-.38-.66-.29c.77.45,1.15,1.63,3.19,2.82.35.2,1.44.69,1.31,1.19C48.1,63.32,40.17,59.38,42,58.31Zm1.7,4.94c2.27-3.33,2.17,2.17,2.17,2.17,2.41-1.93,1.45,4.34,1.45,4.34C48.92,67.5,49,72.89,49,72.89c-3.86-3.13-8.2-11.09-8.2-11.09C43,59.15,43.72,63.24,43.72,63.24Zm-3.13,2.41s-3.22-1.15-1-3.86a92.72,92.72,0,0,0,6.85,9.93,5.53,5.53,0,0,1,.39.44l-.39-.44c-.78-.8-2.6-2.29-4.43-1C42,70.72,37.93,66.14,40.59,65.66Zm-2.41,6c1-2.65,3.38,0,3.38,0,2.89-1.21,4.58,2.41,4.58,2.41,1.93,0,1.69,2.89,1.69,2.89C44,76.75,34.5,72.65,34.5,72.65,34.44,70.54,38.17,71.68,38.17,71.68ZM37.45,76s-4.22-1-3-2.89c0,0,2.47,2.35,11.93,4.58,0,0-6.27,3.38-5.55.24C40.83,78,35.76,78.19,37.45,76ZM37,85.12s-1.21,1.69-2,1c0,0-1.27-1,1-3.26,0,0,0-3,3.5-3.25,0,0,1.15-.6,1.45.24,0,0-3.25.78-5.49,5.73,0,0,4.34-4.94,7.47-5.36l1.57-.18s-2.29,1.57.54.54a.7.7,0,0,1,.54-.24c.36,0-3.44,1.45-3.56,3a1.33,1.33,0,0,1-1.51,1.27A2.7,2.7,0,0,1,37,85.12Zm1.81,4s-.42-2.53,1.27-3c0,0,1.17-.86,1.39-.48a.46.46,0,0,1-.06.54l-1.75,2.41s-.42.72.18.54c0,0,5.67-7.66,9.52-8.56,0,0,1.27-.84,1.15.12,0,0,.3,1.63-1.15,1.21,0,0,1,3.07-2.83,3.32,0,0,1.27,3.25-3,3.07,0,0-1,1.93-2.23.78C41.31,89,39.38,91.15,38.84,89.1Zm5,6s-.6-.6-.78-.12a3,3,0,0,1-3.38,1.57s-1.69-2.17.18-3.25c0,0,.9-1,.24-1.15a.61.61,0,0,1-.54-.72l.54-.48a7.84,7.84,0,0,0,1,.9s1-.24-.24,1.21c0,0-1.15,1.39-1,2l.36.24s1.39-2.47,2.35-2.89c0,0-.36.84,1.81,1A2.86,2.86,0,0,1,43.84,95.07ZM47,102.48a1.39,1.39,0,0,1-.78-2c-.9-.24-1-1-1-1.75,0,0,.42-1.15.78-1.21,0,0-1.57-1.15-1.39-1.57,0,0-.12-2.23,1.33-2.29,0,0,2.23.54,1.33,3.44l.18-.06c1.51-.24.12,3.62.12,3.62.42-.42,1,.36,1,.36A1.77,1.77,0,0,1,47,102.48Zm1.51,3c-1.93-1.45.24-2.17.24-2.17l1,1.45c-1-1.69.24-5.3.24-5.3h1.21c-2.17,2.89-.72,7.23-.72,7.23C48.78,107.85,48.54,105.44,48.54,105.44Zm7.05,3.62a2.07,2.07,0,0,1-1.09,1.75c-1.57-.06-2-3.13-2-3.13-2.17,0-1.21-1.45-1.21-1.45a5.4,5.4,0,0,0,1-2.47,1.16,1.16,0,0,0-1-1.51c2.47-2,2,3.92,2,3.92A7.37,7.37,0,0,0,54,109l.3.18a44.75,44.75,0,0,1,.78-14.41c1.75,1.57,1,2.23,1,2.23-.42,1.75,2.17,5.67,2.17,5.67,1.15,1.45-1.57,1.45-1.57,1.45C58.49,108,55.59,109.05,55.59,109.05Zm9,5.79L57,109.52c.8-1,2.1-.7,3.08-.72,1.39,0,.48,1,.79,2.12a2.9,2.9,0,0,0,2.1,1.76c1.12,0,1.91-1,2.56-1.71L67,112.34A19.75,19.75,0,0,0,64.63,114.85Zm3-3.08-1-1.51a8.8,8.8,0,0,0,3.14-1.66l-.16.17.84,1.09A20.66,20.66,0,0,0,67.68,111.77Zm4.53-6.39a.93.93,0,0,0-.25-1.25c1.59-.62,1.43-2.45,1.22-3.85-.08-.56-1.1-.6-1.09-1,.05-1.81-1.07-3.37-.77-5.15,3.65,1.12,7.5,2.58,9.24,6.14a6.56,6.56,0,0,1-.18,5.62L79.85,107a24.07,24.07,0,0,0-8.55,2.42l-.77-1.5A8.44,8.44,0,0,0,72.21,105.38Zm-1,19.82-.6-.36c.72-1,1.08-1,1.69-.6,0,0,1.08-2.29,2.65-.36,0,0,2-2,2.89.6,0,0,2-1.81,3,2.41C80.85,126.9,75.42,122.19,71.21,125.21Zm10,2.48h0l-.13.09,0,0-.17.1-.06,0-.18.06a.74.74,0,0,1-.38,0,.63.63,0,0,1-.19-.1l-.08-.06a1,1,0,0,1-.24-.34s-2.17,1.51-2.59-.42c0,0-2.29,1-3-1,0,0-.69,1.66-2.14-.51,0,0,2.64-2.32,9.25,2Zm1.08,2.82a8,8,0,0,1-.77-2.62,14.65,14.65,0,0,1-.13-1.49c0-.05,0-.1,0-.15,0-.22,0-.43,0-.63,0,0,0,0,0-.05,0-.22,0-.43,0-.63v-.1c0-.16,0-.32,0-.45v-.07c0-.15,0-.29,0-.4v-.05l0-.22v-.12h1v.11l0,.25v0c0,.12,0,.25-.05.41h0c0,.16,0,.35-.05.54v0c0,.19,0,.4,0,.62v.07c0,.22,0,.45,0,.69v.07a12.08,12.08,0,0,0,.12,1.52v.06h0c.44,2.93,2.2,5.8,8,3.29L91,132S84.75,135.11,82.3,130.51Zm10.19-4.34c-1,1.69-2.59.36-2.59.36-.12,1.93-2.77.12-2.77.12a1.44,1.44,0,0,1,0,.39,1,1,0,0,1,0,.1,1,1,0,0,1-.07.21l-.06.1a1,1,0,0,1-.12.15l-.09.08-.17.11a5.24,5.24,0,0,1-3,.11l-.13,0h-.08a10.61,10.61,0,0,1,11.45-2.29C96.64,126.77,92.48,126.17,92.48,126.17Zm.13-17.08a20.63,20.63,0,0,0,2.08-4c.83-2.3-1-5.24-.36-7.62.74-2.71,4.34-3.21,6.48-1.26a1.09,1.09,0,0,1,0,1.15c-.91,1.1-2.44,2.41-1.53,3.59.36.46-.5,1.54-.73,1.49-1.62,2.18-1,3.79-.14,6.52,0,.1.68.89.79,1a4.4,4.4,0,0,1,.28.47l-.15-.18-1.74,2.11A22,22,0,0,0,92.61,109.1Zm7.87,6.39a21,21,0,0,0-2.31-2.58l1.78-1.53a1.35,1.35,0,0,0,1.25.71c1.38,0,2.52-1.15,3.19-2.32.47-.83,1.9-1.17,1.71-2.75,0-.19.32-.46.58-.61a.38.38,0,0,1,.57.3,1.28,1.28,0,0,0,.93,1.49,5.83,5.83,0,0,0,2,.44.25.25,0,0,0,0-.06,1.3,1.3,0,0,0,.35-.1l.06.06Zm11.16-7.68c-.06-.07-.11-.11-.17-.2s-3.86.84-2.77-2.29c0,0-2.77,1.57-3.13-.48,0,0,1.81-1.57-.6-4.46,0,0,1.08-.84-.72-3.74,0,0,6.22,6.89,8.59,10.35Zm2.41-1.66-.53.37A36.65,36.65,0,0,0,103,94.23c6.39-.12,5.3,2.77,5.3,2.77a3.66,3.66,0,0,1,4.1,4.46,2.08,2.08,0,0,1,1.08,3.5A5,5,0,0,1,114.05,106.14ZM114,96.64s-3.58.94-.72-5.3c0,0-2.29-.72-.72-3.38a3.73,3.73,0,0,0,1.33-1.45c.48-1,1.08,3.25,1.08,3.25s.36,7.84,1.93,10.25c1,1.58.48.12.48.12s-1.09-7.59-1.09-11.09c0,0-.48-2-.72-2.89-.17-.58,2.17,1.57,2.29,2.53s-.36,1-.36,1,3.62,4.46,1.09,4.7c0,0,2.53,3.5.24,4.46,0,0,.11,4.69-1.57,3a5.62,5.62,0,0,1-1.09-1.57s.12,2.53-1.21,1.81A5.61,5.61,0,0,1,114,96.64Z"/>
      <path class="cls-4" d="M80.75,118.93c0-.24-.07-.42-.07-.5l-.15,0H80.4l-.2.17a7.08,7.08,0,0,0,.13.71Z"/>
    </g>
    <g>
      <path class="cls-1" d="M183.06,94.34l-2.88-.47V91.65h19.19l.47,6h-2.52l-1.19-3.56-7.77-.32v9.68l5-.11.58-3h2.3v8.71h-2.3l-.58-3.1-5-.11v10.15l8.71-.43,2.09-4.61,2.7.76-.94,6.59h-20.7v-2.16l2.84-.36Z"/>
      <path class="cls-1" d="M206.1,92.08l-2.66-.47V89.66l6.66-.79h.07l1,.68v26.38l2.63.29v2.16H203.58v-2.16l2.52-.32Z"/>
      <path class="cls-1" d="M215.92,108.38c0-6.55,3.89-10.51,9.68-10.51,4.86,0,7.45,2.66,7.56,7.27a15.16,15.16,0,0,1-.29,3.53h-11.7c.18,4.28,2.05,6.91,5.54,6.91A10.09,10.09,0,0,0,232,114l.9,2a11.78,11.78,0,0,1-7.56,2.81C218.73,118.78,215.92,114.5,215.92,108.38Zm12.2-1.87c0-.5.07-1,.07-1.55,0-2.84-.83-4.79-3.2-4.79-2.12,0-3.67,1.3-3.82,6.34Z"/>
      <path class="cls-1" d="M236,116.23l2-.32V101.8l-2.3-.65V98.66l6-.76.43.29.54,1.19v1.51A12.59,12.59,0,0,1,249.94,98c2.63,0,4.14.86,5,2.66A11.2,11.2,0,0,1,261.86,98c4.32,0,5.87,2.38,5.87,8v9.93l2.34.32v2.16h-9.32v-2.16l1.87-.32v-9.79c0-3.64-.65-5.08-3.2-5.08a7.1,7.1,0,0,0-4,1.55,19.26,19.26,0,0,1,.25,3.42v9.9l2.23.32v2.16h-9.39v-2.16l2-.32V106c0-3.56-.5-5-3-5a7.35,7.35,0,0,0-4.32,1.76v13.1l2.12.32v2.16H236Z"/>
      <path class="cls-1" d="M272.19,108.38c0-6.55,3.89-10.51,9.68-10.51,4.86,0,7.45,2.66,7.56,7.27a15.16,15.16,0,0,1-.29,3.53h-11.7c.18,4.28,2.05,6.91,5.54,6.91a10.09,10.09,0,0,0,5.25-1.58l.9,2a11.78,11.78,0,0,1-7.56,2.81C275,118.78,272.19,114.5,272.19,108.38Zm12.2-1.87c0-.5.07-1,.07-1.55,0-2.84-.83-4.79-3.2-4.79-2.12,0-3.67,1.3-3.82,6.34Z"/>
      <path class="cls-1" d="M294.33,101.8l-2.3-.65V98.66l6-.76h.11l.9.72V100l0,.86A11.61,11.61,0,0,1,306.32,98c4.36,0,5.76,2.27,5.76,8v9.93l2.2.29v2.16H305v-2.16l1.94-.29V106c0-3.56-.58-5-3.06-5a8,8,0,0,0-4.39,1.76v13.1l2.16.32v2.16h-9.39v-2.16l2.09-.32Z"/>
      <path class="cls-1" d="M318.45,114.36V101.15h-2.34V99.28c.68-.25,1.66-.58,2.2-.83a3.33,3.33,0,0,0,1-1.62,38,38,0,0,0,1.19-3.74h2.88l.14,5.29h5.51v2.77H323.6v10.11c0,3.85.18,4.14,1.84,4.14a10,10,0,0,0,3.49-.68l.68,2a12.87,12.87,0,0,1-6.73,2C319.93,118.71,318.45,117.45,318.45,114.36Z"/>
      <path class="cls-1" d="M342.93,106.15v-.83c0-2.77-.68-4-3.78-4a14,14,0,0,0-6.08,1.62l-1.12-2.3a15.26,15.26,0,0,1,8.5-2.74c5.51,0,7.27,2.05,7.27,7.27v11h1.94v2a22.44,22.44,0,0,1-4.39.54c-1.62,0-2.05-.32-2.05-1.83v-1a8.31,8.31,0,0,1-6,2.81,5.74,5.74,0,0,1-6.08-6C331.12,108.2,336.42,106.19,342.93,106.15Zm0,8.1v-5.9c-4.54,0-6.44,1.76-6.44,3.92,0,2.34,1.22,3.53,3,3.53A6,6,0,0,0,342.93,114.25Z"/>
      <path class="cls-1" d="M351.9,116.27l2.38-.29V101.8l-2.3-.65V98.66l5.58-.76h.11l.9.72v.79l-.11,2.92h.11c.43-1.19,3-4.46,6.62-4.46a4,4,0,0,1,1.37.22v5.4a4.37,4.37,0,0,0-2.63-.76,7.74,7.74,0,0,0-4.57,1.4v11.81l4.17.32v2.12H351.9Z"/>
      <path class="cls-1" d="M369.61,127v-3.85a6.48,6.48,0,0,0,2.38.43c2.38,0,3.82-1.44,5.15-5.18h-1.94l-6.77-17.46-1.62-.47V98.38h9.9v2.09l-2.63.43,3.2,10,1.3,4.25,1.12-4.25,3-10-2.27-.43V98.38h7.81v2.09l-1.76.43c-2.81,8.53-5.79,17.1-6.19,18-2.09,5.58-3.92,8.5-8.17,8.5A7.45,7.45,0,0,1,369.61,127Z"/>
      <path class="cls-1" d="M423.35,106l-2.66.47A11,11,0,0,1,418,114a7.12,7.12,0,0,0,4.54,2.12v2a9.23,9.23,0,0,1-3.13.54,7.2,7.2,0,0,1-4.75-1.69,11,11,0,0,1-6.59,1.8c-6.12,0-10-2.59-10-7.16,0-3.31,2.66-5.44,5.44-6.52-1.55-2-3.06-4.32-3.06-7.16,0-3.67,3.38-6.62,7.81-6.62,4.79,0,6.91,2.66,6.91,5.15,0,4.07-2.3,5.87-6.19,8,1.73,2.09,4.79,5.54,6.51,7.2l.72.68a10.33,10.33,0,0,0,1.22-5.87l-2.77-.47V103.6h8.67Zm-10.76,9.36c-2.48-2.09-5.58-6-7.7-8.53a5.78,5.78,0,0,0-2.3,4.36c0,3.06,2.16,5.25,6,5.25A6.81,6.81,0,0,0,412.59,115.33Zm-4.82-12.45c2.38-2.05,3.2-3.89,3.2-6.37,0-1.22-.43-3.38-2.74-3.38-1.76,0-3,1.48-3,4A9.35,9.35,0,0,0,407.77,102.88Z"/>
      <path class="cls-1" d="M434.41,117.2l.32-6.66h2.92l.79,4.64a6.68,6.68,0,0,0,4.43,1.3c3.28,0,4.82-1.58,4.82-4,0-2.63-2.45-3.89-6.16-5.54-2.81-1.3-6.91-3.49-6.91-8.39,0-3.92,3.06-7.2,9.21-7.2,3.89,0,6.41,1.19,7.45,1.26l-.22,6.3h-2.88l-.76-4.43a5.55,5.55,0,0,0-3.46-.94c-3,0-4.36,1.51-4.36,3.64,0,2.84,2.88,4.1,6.41,5.83,3,1.44,7,3.49,7,7.85,0,3.6-2.52,8-10,8C438.73,118.78,435.59,117.27,434.41,117.2Z"/>
      <path class="cls-1" d="M455.36,108.38c0-6.55,3.89-10.51,9.68-10.51,4.86,0,7.45,2.66,7.56,7.27a15.16,15.16,0,0,1-.29,3.53h-11.7c.18,4.28,2.05,6.91,5.54,6.91a10.09,10.09,0,0,0,5.25-1.58l.9,2a11.78,11.78,0,0,1-7.56,2.81C458.17,118.78,455.36,114.5,455.36,108.38Zm12.2-1.87c0-.5.07-1,.07-1.55,0-2.84-.83-4.79-3.2-4.79-2.12,0-3.67,1.3-3.82,6.34Z"/>
      <path class="cls-1" d="M485.24,97.87A20.54,20.54,0,0,1,491.11,99l-.22,6.16h-3.13l-.9-4c-.18-.72-1.15-.94-2.12-.94-2.56,0-4.28,2.05-4.32,7.27,0,5.44,2.05,8.17,5,8.17a9.2,9.2,0,0,0,5-1.48l.83,1.87a10.4,10.4,0,0,1-7,2.74c-6.37,0-9.25-4.39-9.25-10.22C475,102.3,478.9,97.87,485.24,97.87Z"/>
      <path class="cls-1" d="M504.07,97.87c6.12,0,9.47,4.07,9.47,10.37,0,7.16-4.72,10.55-9.9,10.55-6.08,0-9.47-4.07-9.47-10.37C494.17,101.4,498.88,97.87,504.07,97.87ZM508,108.6c0-5.25-1.12-8.39-4.14-8.39-2.66,0-4.18,2.45-4.18,7.85s1.22,8.39,4.25,8.39C506.55,116.45,508,114,508,108.6Z"/>
      <path class="cls-1" d="M518.83,101.8l-2.3-.65V98.66l6-.76h.11l.9.72V100l0,.86A11.61,11.61,0,0,1,530.81,98c4.36,0,5.76,2.27,5.76,8v9.93l2.2.29v2.16h-9.29v-2.16l1.94-.29V106c0-3.56-.58-5-3.06-5A8,8,0,0,0,524,102.8v13.1l2.16.32v2.16h-9.39v-2.16l2.09-.32Z"/>
      <path class="cls-1" d="M541,108.85c0-5.9,3.71-11,10.69-11a11.43,11.43,0,0,1,2.59.29V92.08l-3.53-.5v-2l7.42-.72h.11l1,.76v26.56h1.94v2.05a23.12,23.12,0,0,1-4.28.54c-1.44,0-2.12-.29-2.12-1.87v-1a7.67,7.67,0,0,1-6,2.88C544.57,118.78,541,115.8,541,108.85Zm13.28,5.29V101a4,4,0,0,0-2.81-.86c-2.81,0-5,2.12-5.08,8.1-.07,5.36,1.87,7.52,4.32,7.52A4.55,4.55,0,0,0,554.28,114.14Z"/>
      <path class="cls-1" d="M575.27,106.15v-.83c0-2.77-.68-4-3.78-4a14,14,0,0,0-6.08,1.62l-1.12-2.3a15.26,15.26,0,0,1,8.5-2.74c5.51,0,7.27,2.05,7.27,7.27v11H582v2a22.44,22.44,0,0,1-4.39.54c-1.62,0-2.05-.32-2.05-1.83v-1a8.31,8.31,0,0,1-6,2.81,5.74,5.74,0,0,1-6.08-6C563.47,108.2,568.76,106.19,575.27,106.15Zm0,8.1v-5.9c-4.54,0-6.44,1.76-6.44,3.92,0,2.34,1.22,3.53,3,3.53A6,6,0,0,0,575.27,114.25Z"/>
      <path class="cls-1" d="M584.24,116.27l2.38-.29V101.8l-2.3-.65V98.66l5.58-.76H590l.9.72v.79l-.11,2.92h.11c.43-1.19,3-4.46,6.62-4.46a4,4,0,0,1,1.37.22v5.4a4.37,4.37,0,0,0-2.63-.76,7.74,7.74,0,0,0-4.57,1.4v11.81l4.17.32v2.12H584.24Z"/>
      <path class="cls-1" d="M601.95,127v-3.85a6.48,6.48,0,0,0,2.38.43c2.38,0,3.82-1.44,5.15-5.18h-1.94l-6.77-17.46-1.62-.47V98.38H609v2.09l-2.63.43,3.2,10,1.3,4.25,1.12-4.25,3-10-2.27-.43V98.38h7.81v2.09l-1.76.43c-2.81,8.53-5.79,17.1-6.19,18-2.09,5.58-3.92,8.5-8.17,8.5A7.45,7.45,0,0,1,601.95,127Z"/>
      <path class="cls-1" d="M633,94.34l-2.88-.47V91.65h19.19l.47,6h-2.52L646,94.13l-7.77-.32v9.68l5-.11.58-3h2.3v8.71h-2.3l-.58-3.1-5-.11v10.15l8.71-.43,2.09-4.61,2.7.76-.94,6.59h-20.7v-2.16l2.84-.36Z"/>
      <path class="cls-1" d="M653.61,108.85c0-5.9,3.71-11,10.69-11a11.43,11.43,0,0,1,2.59.29V92.08l-3.53-.5v-2l7.42-.72h.11l1,.76v26.56h1.94v2.05a23.12,23.12,0,0,1-4.28.54c-1.44,0-2.12-.29-2.12-1.87v-1a7.67,7.67,0,0,1-6,2.88C657.17,118.78,653.61,115.8,653.61,108.85Zm13.28,5.29V101a4,4,0,0,0-2.81-.86c-2.81,0-5,2.12-5.08,8.1-.07,5.36,1.87,7.52,4.32,7.52A4.55,4.55,0,0,0,666.89,114.14Z"/>
      <path class="cls-1" d="M690.44,116.73v-1a8.92,8.92,0,0,1-6.26,3c-4.64,0-6.41-2.2-6.41-7.67V101l-1.8-.5V98.41l6.12-.47h0l.72.5v12.67c0,3.46.68,4.71,3.06,4.71a6,6,0,0,0,4-1.66V101l-2.41-.54v-2l6.51-.47H694l.86.5v17.71h2l0,2.05a19,19,0,0,1-4.18.54C691.12,118.75,690.44,118.07,690.44,116.73Z"/>
      <path class="cls-1" d="M709.23,97.87A20.54,20.54,0,0,1,715.1,99l-.22,6.16h-3.13l-.9-4c-.18-.72-1.15-.94-2.12-.94-2.56,0-4.28,2.05-4.32,7.27,0,5.44,2.05,8.17,5,8.17a9.2,9.2,0,0,0,5-1.48l.83,1.87a10.4,10.4,0,0,1-7,2.74c-6.37,0-9.25-4.39-9.25-10.22C699,102.3,702.89,97.87,709.23,97.87Z"/>
      <path class="cls-1" d="M729.57,106.15v-.83c0-2.77-.68-4-3.78-4a14,14,0,0,0-6.08,1.62l-1.12-2.3a15.26,15.26,0,0,1,8.5-2.74c5.51,0,7.27,2.05,7.27,7.27v11h1.94v2a22.44,22.44,0,0,1-4.39.54c-1.62,0-2.05-.32-2.05-1.83v-1a8.31,8.31,0,0,1-6,2.81,5.74,5.74,0,0,1-6.08-6C717.76,108.2,723.05,106.19,729.57,106.15Zm0,8.1v-5.9c-4.54,0-6.44,1.76-6.44,3.92,0,2.34,1.22,3.53,3,3.53A6,6,0,0,0,729.57,114.25Z"/>
      <path class="cls-1" d="M740.15,114.36V101.15h-2.34V99.28c.68-.25,1.66-.58,2.2-.83a3.33,3.33,0,0,0,1-1.62,38,38,0,0,0,1.19-3.74h2.88l.14,5.29h5.51v2.77H745.3v10.11c0,3.85.18,4.14,1.84,4.14a10,10,0,0,0,3.49-.68l.68,2a12.87,12.87,0,0,1-6.73,2C741.63,118.71,740.15,117.45,740.15,114.36Z"/>
      <path class="cls-1" d="M755.6,101.8l-2.56-.68V98.7l6.59-.79h.07l1,.72v17.31l2.41.29v2.16h-10v-2.16l2.52-.32Zm-.9-9.39a3,3,0,0,1,3.17-3.17,2.62,2.62,0,0,1,3,2.7,3,3,0,0,1-3.28,3.17h0A2.6,2.6,0,0,1,754.7,92.4Z"/>
      <path class="cls-1" d="M775.61,97.87c6.12,0,9.47,4.07,9.47,10.37,0,7.16-4.72,10.55-9.9,10.55-6.08,0-9.47-4.07-9.47-10.37C765.71,101.4,770.43,97.87,775.61,97.87Zm3.92,10.73c0-5.25-1.12-8.39-4.14-8.39-2.66,0-4.18,2.45-4.18,7.85s1.22,8.39,4.25,8.39C778.09,116.45,779.53,114,779.53,108.6Z"/>
      <path class="cls-1" d="M790.37,101.8l-2.3-.65V98.66l6-.76h.11l.9.72V100l0,.86A11.61,11.61,0,0,1,802.36,98c4.36,0,5.76,2.27,5.76,8v9.93l2.2.29v2.16H801v-2.16l1.94-.29V106c0-3.56-.58-5-3.06-5a8,8,0,0,0-4.39,1.76v13.1l2.16.32v2.16h-9.39v-2.16l2.09-.32Z"/>
    </g>
  </g>
</svg>
