<svg xmlns="http://www.w3.org/2000/svg" width="744.41" height="154.99" viewBox="0 0 744.41 154.99">
  <defs>
    <style>
      .cls-2 {
        fill: #294179;
      }

      .cls-3 {
        fill: #4b4f54;
      }

      .cls-4 {
        font-size: 45px;
        stroke: #2d8700;
        stroke-miterlimit: 10;
        font-family: Raleway, Raleway;
      }

      .cls-12, .cls-4 {
        fill: #2d8700;
      }

      .cls-5 {
        letter-spacing: -0.02em;
      }

      .cls-6 {
        letter-spacing: -0.01em;
      }

      .cls-7 {
        letter-spacing: -0.01em;
      }

      .cls-8 {
        letter-spacing: 0em;
      }

      .cls-9 {
        letter-spacing: -0.02em;
      }

      .cls-10 {
        letter-spacing: 0em;
      }

      .cls-11 {
        letter-spacing: 0em;
      }

      .cls-12 {
        font-size: 33px;
        font-family: Raleway-Bold, Raleway;
        font-weight: 700;
      }

      .cls-13 {
        letter-spacing: -0.02em;
      }
    </style>
  </defs>
  <title>logo</title>
  <g id="Logo">
    <g>
      <path class="cls-2" d="M80.63,2.84a77.49,77.49,0,1,0,77.49,77.49A77.49,77.49,0,0,0,80.63,2.84Zm0,154.31a76.9,76.9,0,1,1,76.9-76.9A77,77,0,0,1,80.6,157.15Z" transform="translate(-3.13 -2.84)"/>
      <g>
        <path class="cls-2" d="M80.63,6.06A74.28,74.28,0,1,0,154.9,80.33,74.36,74.36,0,0,0,80.63,6.06Zm66,71.29c-2.72.33-6.19-1.29-6.53-4.07-.37-3,2.18-5.14,5.35-5.53,2.72-.33,6.19,1.29,6.53,4.07C152.38,74.86,149.83,77,146.66,77.35Zm3.93-12.45-.51.13-.35-.84-9.85,2.49.09.91-.51.13L138.52,64l.51-.13.35.84,9.85-2.49-.09-.91.51-.13Zm-3.92-12.24,1.83,4.78a3.57,3.57,0,0,0,.77,1.34l-3,1.92-.31-.44c1.2-1.14,2.14-2.35,1.48-4.08l-9.61,3.68.2.89-.49.19-1.36-3.55.49-.19.44.8,9.61-3.68c-.66-1.73-2.17-2-3.82-2l-.06-.54,3.5-.57A3.58,3.58,0,0,0,146.66,52.66Zm-8.56,27.57A57.32,57.32,0,1,1,80.79,22.91,57.38,57.38,0,0,1,138.11,80.22Zm4-36.42,1.2,1.86-7.66,8.53.28.88-.46.26-1.95-3.4.45-.26.62.68,2.06-2.28-1.94-3.38-1.6.35a2.29,2.29,0,0,0-.68.26c-.5.29-.29.85-.16,1.4l-.45.26-1.61-2.82.46-.26a2,2,0,0,0,2.11.58l8.7-1.83Zm-5.06-7.69a4.49,4.49,0,0,1,.62,1,4.32,4.32,0,0,0,.44.84,3.66,3.66,0,0,0,1,.72l-2.28,2.85-.5-.39c.64-1.46,1.27-3.3.3-4.52-1.25-1.56-3.59-.76-5.11.45-2,1.6-3.85,4.29-2.28,6.27a3.19,3.19,0,0,0,3.5.81l.18.55a4.56,4.56,0,0,1-5.26-1.17c-1.83-2.29-.88-5.23,1.55-7.18C131.46,34.62,135.14,33.71,137.07,36.12Zm-11.6-11.53,2.8,2.57-.35.39-.75-.51L122,32.72a2.67,2.67,0,0,0,.13,3.7,2.58,2.58,0,0,0,3.86-.13l4.31-4.7a1.37,1.37,0,0,0-.09-2l.35-.39,2.59,2.37-.35.39a1.37,1.37,0,0,0-2,.09l-4,4.39c-1.35,1.47-3.21,2.29-5.48.2-1.81-1.66-2.5-3.43-.8-5.29l5.21-5.68-.58-.71ZM115.69,18l3.7,2.41c3.15,2,2.62,5.44,1.2,7.63s-4.31,4-7.46,2l-3.7-2.41.29-.44.83.38,5.54-8.52-.68-.6Zm-14.45,5.43.88.24,4.1-9.3-.77-.48.21-.48,5.67,2.5a3.57,3.57,0,0,0,1.49.39l-.65,3.35-.61-.12c0-2.08-.49-3.16-2.7-4.13a2.47,2.47,0,0,0-.82-.22l-1.77,4,.6.26c1,.46,1.62.14,2.39-1l.48.21-1.69,3.84-.48-.21c.29-1.31.13-2-.91-2.41l-.6-.26-2.12,4.8a2.47,2.47,0,0,0,.71.46c2.17,1,3.55.4,5.18-1.06l.5.37-2.25,3.06a3.59,3.59,0,0,0-1.3-.84L101,23.94Zm-11.7-2.87.91.06,2.09-9.95-.86-.31.11-.51,5.82,1.22a3.57,3.57,0,0,0,1.54.07l.16,3.62-.64,0c-.6-2-1.14-3.19-3.34-3.65a2.46,2.46,0,0,0-.84,0l-.94,4.46.95.2c1.06.22,1.55-.46,1.89-1.36l.51.11-.85,4.06-.51-.11c.09-1.14-.09-2-1.15-2.18l-.95-.2-1,5,.86.31-.11.51-3.72-.78ZM84.85,9c3.06.17,4.67,3.05,4.49,6.24C89.2,18,87,21.11,84.19,21c-3.06-.17-4.67-3.05-4.49-6.25C79.84,12,82.06,8.85,84.85,9ZM65,10.52a3.57,3.57,0,0,0,1.54,0l5-.83a3.57,3.57,0,0,0,1.46-.49l1.28,3.31-.5.21c-.88-1.4-1.87-2.57-3.7-2.27l1.67,10.16.91,0,.09.52-3.75.62L69,21.21l.87-.28L68.19,10.78c-1.83.3-2.39,1.72-2.77,3.33l-.54,0Zm-9.14,3.05,7.66,6.05h0L61.52,13.5c-.29-.87-.77-.9-1.58-.75l-.17-.5,3.08-1,.17.5a1.32,1.32,0,0,0-.75,1.74l3.13,9.28-.73.25-8.85-6.91h0l2.3,6.84a1.37,1.37,0,0,0,1.77.88l.17.5-3.32,1.12-.17-.5A1.49,1.49,0,0,0,57.34,23L55,16.11A1.5,1.5,0,0,0,53.19,15l-.17-.5Zm-7.2,3.15a3.57,3.57,0,0,0,1.23-.94l2.24,2.58-.47.4c-1.66-1.25-2.79-1.56-4.91-.42a2.46,2.46,0,0,0-.67.51l2.08,3.87.58-.31c1-.53,1.11-1.19.72-2.47l.46-.25,2,3.7-.46.25c-.85-1-1.46-1.3-2.46-.77l-.58.31,2.48,4.62a2.47,2.47,0,0,0,.8-.28c2.1-1.12,2.5-2.55,2.35-4.74l.6-.17,1,3.65a3.58,3.58,0,0,0-1.46.5l-5.56,3-.25-.46.73-.54-4.8-9-.86.31-.25-.46ZM34.4,26.19l5.82,3.44-2-6.46,2.31-1.84.33.41-.62.66,6.6,7.74.79-.46.33.41-3,2.39-.33-.41.62-.66-5.88-7,0,0,2.38,7.78-.33.27L34.42,28.4l0,0L39,34.58a1.26,1.26,0,0,0,2,.34l.33.41-2.64,2.1L38.38,37a1.43,1.43,0,0,0,0-2.05l-5.19-7-.79.46L32.07,28Zm-8.89,9L28.9,31.4a3.58,3.58,0,0,0,.83-1.31l3.08,1.76-.25.48c-1.57-.53-3.07-.81-4.3.58L36,39.73l.7-.59.39.35-2.52,2.85L34.16,42l.5-.76-7.72-6.82c-1.23,1.39-.77,2.85,0,4.34l-.45.31-2.13-2.84A3.57,3.57,0,0,0,25.52,35.23Zm-5.15,7.2c1.17-1.82,2.84-3.61,5-2.2a2.93,2.93,0,0,1,.81,3.62l5.78.5.6-.69.44.28-1.51,2.34-6.36-.6-.61,1,4.22,2.71.6-.69.44.28-2.06,3.2-.44-.28.38-.83-8.55-5.49-.6.69L18.1,46Zm-5.08,9.23,11.42,1,.54-.75.48.21-1.55,3.6-.48-.21.18-.91-3.06-.28-1.54,3.58L22.49,59a2.27,2.27,0,0,0,.62.39c.53.23.85-.28,1.22-.71l.48.21-1.29,3L23,61.66a2,2,0,0,0-.8-2l-6.68-5.86H14.51Zm-3.36,9.78c.6-2.18,1.93-4.14,4-3.57,2.59.72,2.46,3.39,1.8,5.79l-.21.74L22,65.65l.37-.83.51.14-1,3.67-.51-.14.11-.9-9.8-2.71-.37.83-.51-.14Zm-2,7.47,3.39-.36.06.62c-2,.65-2.87,1.4-3.15,3.79a2.48,2.48,0,0,0,0,.85l4.37.51.08-.65c.13-1.12-.34-1.59-1.62-2l.06-.52,4.17.48-.06.52c-1.33.11-1.9.46-2,1.58l-.08.65,5.21.61a2.48,2.48,0,0,0,.23-.82c.27-2.36-.66-3.51-2.55-4.64l.2-.59,3.59,1.24a3.58,3.58,0,0,0-.42,1.49l-.73,6.27-.52-.06,0-.91L10,75.8l-.23.88-.52-.06L10,70.46A3.57,3.57,0,0,0,9.94,68.92Zm.18,19.7-.52,0-.19-4.41c-.16-3.75,2.9-5.3,5.51-5.41s5.79,1.16,6,4.91l.19,4.41-.52,0-.17-.9-10.16.44Zm10.08,13.95-2.25-1.67-2.25,1.67,0,0,.89-2.7-2.3-1.69v0h2.82l.85-2.65h0l.83,2.65h2.83v0l-2.28,1.69.89,2.7Zm7.22,23-.32-.41L29.52,118v0l-3.84,3a.93.93,0,0,0-.16,1.32l-.28.22-1.46-1.87.28-.22a1,1,0,0,0,1.42.09l3.86-3a1,1,0,0,0,.3-1.35.92.92,0,0,0-1.27-.29l-3.43,2.1a2.33,2.33,0,0,1-3.6-.89c-.87-1.42-1-2.7.47-3.59l4.44-2.72-.24-.57.3-.19,1.34,2.19-.3.18-.39-.47-4.44,2.72a1.81,1.81,0,0,0-.61,2.42,1.74,1.74,0,0,0,2.53.63l3.68-2.25a.93.93,0,0,0,.31-1.3l.3-.18,1.16,1.9h0l1.25,1.61L29,123.7v0L32.44,121c.49-.38.4-.69.12-1.18l.28-.22,1.35,1.73-.28.22a.9.9,0,0,0-1.28-.09Zm3.16,3.21-1.75-1.89.26-.24.48.39,5-4.66-.35-.51.26-.24,1.75,1.89-.26.24-.48-.39-5,4.66.35.51Zm3.88,3.75-1.88-1.75.24-.26.51.35,4.73-5.1c-.92-.85-1.91-.56-2.93-.1l-.2-.31,2-1.39a2.41,2.41,0,0,0,.64.82l2.53,2.35a2.42,2.42,0,0,0,.87.58l-1.24,2.05-.32-.18c.38-1,.6-2.06-.32-2.91l-4.73,5.1.39.48ZM40,137l-3.4-2.57.21-.28.54.3L41.49,129l-.43-.44.21-.28,3.34,2.52a2.41,2.41,0,0,0,.92.49l-.95,2.1-.38-.18A2.56,2.56,0,0,0,43.07,130a1.67,1.67,0,0,0-.5-.27l-1.79,2.37.35.27c.61.46,1,.34,1.72-.26l.28.21-1.71,2.26-.28-.21c.39-.81.38-1.26-.23-1.72l-.35-.27-2.14,2.83a1.67,1.67,0,0,0,.4.41,2.85,2.85,0,0,0,3.57.1l.27.32-1.95,1.66A2.42,2.42,0,0,0,40,137Zm9.8,1.65c-.91,1.51-2.81,2.83-5,1.53l-2.55-1.53.18-.3.57.24,3.53-5.89-.48-.39.18-.3,2.55,1.53C51,134.84,50.71,137.14,49.8,138.65Zm8.3,1.83-.4-.06c0-.92-.19-2.21-1.19-2.63a1.15,1.15,0,0,0-1.64.55c-.85,2,3.38,2.66,2.19,5.48A2.33,2.33,0,0,1,53.93,145a12.83,12.83,0,0,1-1.53-1,2.1,2.1,0,0,0-.73-.1l.53-2.34.41.11a3.14,3.14,0,0,0,1.56,3,1.39,1.39,0,0,0,1.81-.69c.81-1.93-3.29-2.67-2.09-5.52a2.07,2.07,0,0,1,2.75-1,2.45,2.45,0,0,1,.67.4,2,2,0,0,0,.51.35,1.49,1.49,0,0,0,.79.08Zm3.27,7-2.45-.76.11-.34.61.1,2.06-6.64c-1.2-.37-2,.32-2.68,1.17l-.31-.19,1.16-2.1a2.42,2.42,0,0,0,.93.46l3.3,1a2.41,2.41,0,0,0,1,.15l-.23,2.39-.36,0c-.11-1.11-.35-2.12-1.55-2.49l-2.06,6.64.56.27Zm8.59,2-2.59-.54.07-.35h.62l-.23-2.06L65.26,146l-.54,1a1.54,1.54,0,0,0-.18.46c-.08.38.3.53.63.71l-.07.35L63,148l.07-.35a1.34,1.34,0,0,0,1.24-.8l3-5.22-.14-.7,1.48.23.87,7.7.57.25Zm6.55-4.81c-.32-1.07-.75-2-2-2.15l-.77,6.91.6.16,0,.35-2.55-.28,0-.35.62,0,.77-6.91c-1.24-.14-1.87.68-2.41,1.66l-.34-.13.74-2.28a2.42,2.42,0,0,0,1,.28l3.44.38a2.41,2.41,0,0,0,1-.05l.22,2.39Zm6.11,5.74a2.41,2.41,0,0,0-1-.17l-4.26,0v-.35l.61-.08.05-6.87-.61-.09v-.35l4.19,0a2.42,2.42,0,0,0,1-.16l.49,2.25-.41.09a2.56,2.56,0,0,0-2.78-1.84,1.68,1.68,0,0,0-.57.08l0,3h.44c.76,0,1-.35,1.23-1.23h.35l0,2.84H81c-.17-.89-.44-1.24-1.21-1.25h-.44l0,3.54a1.67,1.67,0,0,0,.56.09,2.85,2.85,0,0,0,2.93-2l.41.09Zm4.56-.3a12.83,12.83,0,0,1-1.83-.19,2.12,2.12,0,0,0-.69.25L84,147.82l.41-.09a3.14,3.14,0,0,0,2.77,1.9,1.39,1.39,0,0,0,1.27-1.46c-.18-2.09-4.15-.82-4.43-3.9A2.07,2.07,0,0,1,86,142.06a2.44,2.44,0,0,1,.78,0,2,2,0,0,0,.62.07,1.48,1.48,0,0,0,.74-.3l.61,2.26-.38.13c-.47-.79-1.2-1.86-2.28-1.77a1.15,1.15,0,0,0-1.19,1.25c.19,2.17,4.23.77,4.5,3.82A2.33,2.33,0,0,1,87.18,150.08Zm9.52-1.53c-2,.47-3.61-1.09-4.1-3.2-.42-1.8.42-4.25,2.26-4.68,2-.47,3.61,1.09,4.1,3.2C99.39,145.67,98.55,148.11,96.7,148.54Zm7.48-8.13c-1-.94-1.77-1.45-3.2-1a1.67,1.67,0,0,0-.51.27l1,2.91.62-.21c.69-.24.74-.81.63-1.45l.34-.12.91,2.65-.34.12c-.34-.69-.73-1.11-1.42-.87l-.62.21,1.12,3.25.6-.11.12.34-2.43.84-.12-.33.55-.28-2.24-6.49-.61.11-.11-.34,3.8-1.31a2.41,2.41,0,0,0,.92-.49l1.35,2Zm8.78,1.93-.16-.32.48-.39-1.46-1.47-2.35,1.19.18,1.09a1.55,1.55,0,0,0,.15.47c.18.35.56.22.94.16l.16.32-2,1-.16-.32a1.34,1.34,0,0,0,.47-1.4l-.93-5.94-.54-.46,1.3-.74,5.49,5.47.6-.16.16.32Zm7.3-4.4-.2-.3.46-.41-3.55-5h0l1.15,5.38-.24.16-4.43-3.18h0l2.77,4.42a.85.85,0,0,0,1.31.34l.2.3-1.9,1.26-.2-.3a1,1,0,0,0,.12-1.38l-3.09-5-.56.26-.2-.3,1.68-1.12,3.72,2.65-1-4.47,1.66-1.1.2.3-.46.41,4,5.6.56-.26.2.3Zm6.49-5.06-3.26,2.76-.23-.27.41-.46-4.44-5.24-.52.33-.23-.27,3.2-2.71a2.41,2.41,0,0,0,.68-.79l1.84,1.39-.26.33a2.56,2.56,0,0,0-3.3.42,1.67,1.67,0,0,0-.37.43l1.92,2.27.34-.29c.58-.49.57-.94.13-1.73l.27-.23,1.83,2.16-.27.23c-.71-.56-1.15-.65-1.73-.16l-.34.29,2.29,2.71a1.67,1.67,0,0,0,.49-.3,2.85,2.85,0,0,0,.89-3.46l.37-.2,1.2,2.27A2.41,2.41,0,0,0,126.75,132.88Zm5.44-5.34-4.14-1.21-.53.55,2.45,2.34.49-.38.26.24-1.78,1.86-.26-.25.36-.5-5-4.75-.49.38-.26-.25,2-2c1-1.06,2.35-2,3.63-.81a2,2,0,0,1,.07,2.51l3.77,1.07.49-.38.26.24Zm1.74-2-.27-.22.32-.53-5.32-4.34-.45.42-.27-.22,1.62-2,.27.22-.32.53,5.32,4.34.45-.42.28.22Zm4.3-5.36c-1.13,1.63-3.22,1.58-4.94.38-1.57-1.09-2.87-3.3-1.69-5a3.06,3.06,0,0,1,.55-.6,2.92,2.92,0,0,0,.46-.45,2.49,2.49,0,0,0,.27-.8l2.28.92-.16.4c-1.07-.13-2.38-.18-3,.68-.77,1.11.2,2.47,1.28,3.22,1.42,1,3.52,1.66,4.5.26a2.16,2.16,0,0,0-.15-2.42l.32-.23A3.08,3.08,0,0,1,138.23,120.2Zm3.91-6.7-.31-.17.18-.6-2-.39-1.28,2.31.76.8a1.53,1.53,0,0,0,.39.3c.34.19.59-.13.86-.4l.31.17L140,117.44l-.31-.17a1.34,1.34,0,0,0-.4-1.42l-4.11-4.38-.71-.07.66-1.35,7.61,1.43.41-.47.31.17Zm5.06-15.34-2.28,1.69.88,2.7,0,0-2.25-1.67-2.25,1.67,0,0,.89-2.7-2.3-1.69v0h2.82l.85-2.65h0l.83,2.65h2.83ZM150.35,87c.92,0,1.12-.39,1.27-1.21l.52,0L152,89l-.52,0a1.33,1.33,0,0,0-1.35-1.32l-9.78-.43,0-.77L150,80.72v0l-7.21-.32a1.37,1.37,0,0,0-1.45,1.33l-.52,0,.16-3.51.52,0A1.49,1.49,0,0,0,143,79.66l7.24.32a1.5,1.5,0,0,0,1.67-1.32l.52,0-.13,3-8.41,5v0Z" transform="translate(-3.13 -2.84)"/>
        <path class="cls-2" d="M17.24,63.48c.43-1.56,0-3-1.77-3.49a2.3,2.3,0,0,0-3.11,1.83,4.08,4.08,0,0,0-.14,1.12l4.68,1.3A3,3,0,0,0,17.24,63.48Z" transform="translate(-3.13 -2.84)"/>
        <polygon class="cls-2" points="64.25 139.4 62.38 142.69 64.67 143.17 64.27 139.4 64.25 139.4"/>
        <polygon class="cls-2" points="105.67 134.28 106.27 138.02 108.36 136.97 105.69 134.27 105.67 134.28"/>
        <path class="cls-2" d="M84.22,20.3c1.41.08,2.76-1.42,3-5.17.23-4-.73-5.38-2.37-5.47-1.41-.08-2.76,1.42-3,5.17C81.63,18.86,82.59,20.21,84.22,20.3Z" transform="translate(-3.13 -2.84)"/>
        <path class="cls-2" d="M113.17,29.45c1.58,1,3.32.94,5.61-2.57s1.66-5.14.08-6.17a4.11,4.11,0,0,0-1.09-.55l-5.54,8.52A4.13,4.13,0,0,0,113.17,29.45Z" transform="translate(-3.13 -2.84)"/>
        <path class="cls-2" d="M95,141.1c-.93.22-1.52,1.45-.94,3.92.62,2.65,1.5,3.35,2.58,3.1.93-.22,1.52-1.45.94-3.92C96.93,141.54,96,140.85,95,141.1Z" transform="translate(-3.13 -2.84)"/>
        <path class="cls-2" d="M15,81c-4.19.18-5.15,1.64-5.06,3.52a4.12,4.12,0,0,0,.18,1.21l10.16-.44A4.1,4.1,0,0,0,20.35,84C20.27,82.16,19.19,80.8,15,81Z" transform="translate(-3.13 -2.84)"/>
        <path class="cls-2" d="M48.45,133.73a2.77,2.77,0,0,0-.75-.35l-3.53,5.89a2.78,2.78,0,0,0,.66.5c1.09.66,2.26.56,3.72-1.87S49.54,134.39,48.45,133.73Z" transform="translate(-3.13 -2.84)"/>
        <polygon class="cls-2" points="132.63 108.68 135.23 111.43 136.36 109.39 132.64 108.66 132.63 108.68"/>
        <path class="cls-2" d="M145.74,69.89c-4,.49-5.16,1.67-5,3.3.17,1.4,1.89,2.46,5.62,2,4-.49,5.16-1.67,5-3.3C151.18,70.5,149.47,69.43,145.74,69.89Z" transform="translate(-3.13 -2.84)"/>
        <polygon class="cls-2" points="18.96 51.41 13.37 50.88 13.35 50.91 17.59 54.59 18.96 51.41"/>
        <path class="cls-2" d="M125.45,123.89c-.15.15-.3.37-.47.57l2.28,2.18.34-.36c1-1,1-1.83.21-2.56A1.54,1.54,0,0,0,125.45,123.89Z" transform="translate(-3.13 -2.84)"/>
        <path class="cls-2" d="M24.51,45.74c1.16-1.81.9-2.93-.42-3.78s-2.65-.24-3.39.92c-.17.26-.34.62-.52,1l3.93,2.52Z" transform="translate(-3.13 -2.84)"/>
        <polygon class="cls-2" points="137.82 42.58 137.81 42.55 132.32 43.73 134.04 46.73 137.82 42.58"/>
      </g>
      <g>
        <path class="cls-2" d="M82.44,117.28l0,0v-.08Z" transform="translate(-3.13 -2.84)"/>
        <path class="cls-2" d="M83.54,118.75a4.23,4.23,0,0,1-.78-.5c0,.15-.1.32-.16.49a4.57,4.57,0,0,0,.82.48A3.66,3.66,0,0,0,83.54,118.75Z" transform="translate(-3.13 -2.84)"/>
        <path class="cls-2" d="M82.6,120.56a4.29,4.29,0,0,0,.32-.4,3.75,3.75,0,0,1-.8-.43c-.08.14-.17.27-.27.41A4.27,4.27,0,0,0,82.6,120.56Z" transform="translate(-3.13 -2.84)"/>
        <path class="cls-2" d="M61.22,39.42c1,.27.66-.17,0,0Z" transform="translate(-3.13 -2.84)"/>
        <path class="cls-2" d="M61.06,39.38l.15,0h0Z" transform="translate(-3.13 -2.84)"/>
        <path class="cls-2" d="M80.9,118.54a9.47,9.47,0,0,0,.59-.88c-.13-.16-.2-.28-.21-.29l.12-.08h-.25a9,9,0,0,1-.55.84C80.69,118.26,80.79,118.4,80.9,118.54Z" transform="translate(-3.13 -2.84)"/>
        <path class="cls-2" d="M81.47,119.86a4.65,4.65,0,0,0,.27-.41,6.19,6.19,0,0,1-.85-.9l-.31.39A6.42,6.42,0,0,0,81.47,119.86Z" transform="translate(-3.13 -2.84)"/>
        <path class="cls-2" d="M82.12,119.73a6.09,6.09,0,0,0,.47-1c-.14-.1-.27-.21-.38-.31a5.54,5.54,0,0,1-.46,1A4.68,4.68,0,0,0,82.12,119.73Z" transform="translate(-3.13 -2.84)"/>
        <path class="cls-2" d="M82.89,117.68a3.57,3.57,0,0,1-.42-.36c0,.14-.06.35-.12.59a5.2,5.2,0,0,0,.4.35C82.81,118,82.86,117.85,82.89,117.68Z" transform="translate(-3.13 -2.84)"/>
        <path class="cls-2" d="M82.62,117.13l-.12,0v.09Z" transform="translate(-3.13 -2.84)"/>
        <path class="cls-2" d="M80.58,118.94l-.3-.4a7.8,7.8,0,0,1-.66.71c.07.15.15.29.24.44A7.94,7.94,0,0,0,80.58,118.94Z" transform="translate(-3.13 -2.84)"/>
        <path class="cls-2" d="M80.6,118.13a7.55,7.55,0,0,1-.5-.85l-.16,0-.09,0,.12.1-.23.24a8,8,0,0,0,.54.9Z" transform="translate(-3.13 -2.84)"/>
        <path class="cls-2" d="M83.54,118.75a3.4,3.4,0,0,0,.45.18,4.24,4.24,0,0,0,.09-.59l-.47-.22A3.66,3.66,0,0,1,83.54,118.75Z" transform="translate(-3.13 -2.84)"/>
        <path class="cls-2" d="M81.75,121.3a3.64,3.64,0,0,1-.67-.34,4.18,4.18,0,0,1-.41.3,4.05,4.05,0,0,0,.75.43l-.08-.13Z" transform="translate(-3.13 -2.84)"/>
        <path class="cls-2" d="M81.75,121.3a3.9,3.9,0,0,0,.58.17,5.17,5.17,0,0,0,.77-.74,3.69,3.69,0,0,1-.49-.17A5,5,0,0,1,81.75,121.3Z" transform="translate(-3.13 -2.84)"/>
        <path class="cls-2" d="M82.92,120.16a3.14,3.14,0,0,0,.48.14,4.22,4.22,0,0,0,.45-.91,3.89,3.89,0,0,1-.45-.17A3.77,3.77,0,0,1,82.92,120.16Z" transform="translate(-3.13 -2.84)"/>
        <path class="cls-2" d="M79.26,119.56l.36-.32a6.28,6.28,0,0,1-.42-1.11l-.4.31A6.79,6.79,0,0,0,79.26,119.56Z" transform="translate(-3.13 -2.84)"/>
        <path class="cls-2" d="M80.28,120.93a3.88,3.88,0,0,1-1,.4,3.68,3.68,0,0,0,.45.38,4.19,4.19,0,0,0,1-.46A4.21,4.21,0,0,1,80.28,120.93Z" transform="translate(-3.13 -2.84)"/>
        <path class="cls-2" d="M77.74,117.75l-.46.24c0,.22.07.46.13.71l.45-.22C77.8,118.22,77.76,118,77.74,117.75Z" transform="translate(-3.13 -2.84)"/>
        <path class="cls-2" d="M78.67,117.94a6.59,6.59,0,0,1-.81.54c0,.16.07.32.12.49a6.7,6.7,0,0,0,.84-.52C78.75,118.26,78.7,118.09,78.67,117.94Z" transform="translate(-3.13 -2.84)"/>
        <path class="cls-2" d="M78,119l-.45.21a6.8,6.8,0,0,0,.43,1.14,3.67,3.67,0,0,0,.45-.19A6.5,6.5,0,0,1,78,119Z" transform="translate(-3.13 -2.84)"/>
        <path class="cls-2" d="M83,117.14a5.06,5.06,0,0,1-.08.54,5.42,5.42,0,0,0,.71.44,3.5,3.5,0,0,0,0-.57,4.27,4.27,0,0,1-.68-.5l-.24.06Z" transform="translate(-3.13 -2.84)"/>
        <path class="cls-2" d="M79.26,119.56a4.81,4.81,0,0,1-.86.56q.11.22.23.42a5.23,5.23,0,0,0,.87-.56C79.42,119.85,79.34,119.71,79.26,119.56Z" transform="translate(-3.13 -2.84)"/>
        <path class="cls-2" d="M81.47,119.86a4,4,0,0,1-.79.8,3.66,3.66,0,0,0,.4.3,4.53,4.53,0,0,0,.77-.81Z" transform="translate(-3.13 -2.84)"/>
        <path class="cls-2" d="M79.87,119.69l-.36.3a4.8,4.8,0,0,0,.77.94,3.68,3.68,0,0,0,.41-.27A4.23,4.23,0,0,1,79.87,119.69Z" transform="translate(-3.13 -2.84)"/>
        <path class="cls-2" d="M113.27,104c-.41-1.67.77-1.65,1.82-2.68.38-.38,1.44.59,2,.1.84-.69,1.62-1.57.91-2.9-.16-.3,1-.59,1.42-1.18a2.51,2.51,0,0,0,2.53.19c1.65-.51,1.94-2.52,2.45-4,1.45,1.36,2.81.34,3-1.09.2-1.9-.65-1,.06-2.08.87-1.29.68-4.42-1.09-5.19.61-1.13,1.09-1,2-1.58a3,3,0,0,0,.65-.53c1-1.06.15-2.17,1.16-3.32a3.51,3.51,0,0,0,.66-1.8l.1.14,4.87-4.62q-.19-1.61-.47-3.19l-5.81,5.92,0,.05a4.73,4.73,0,0,0-1.74-.42c-.85,0,.29-2-1-2.63,1.46-1.29-.17-3.31.23-4.76.18-.64.52-1.32,0-2-.9-1.22-2.34-.67-2.4-2.56a1.22,1.22,0,0,0-.39-.67l5.92-8.19q-.84-1.67-1.79-3.27l-5.59,8.82c-.67-.22-1.5-.32-2.13-.59.83-.8.07-1.64-.55-2.17l-.09-.08a2.2,2.2,0,0,1,1.61-.64c-.36-1.05.78-1.55.56-2.55-.31-1.41-1.8-1.73-3.12-1.56-.24,0-.45.52-.64.5-1.35-.14-.54-1.15-.71-2.16,0-.25-.37-.44-.58-.65,1.69-.88.76-3.14-.16-4a2.25,2.25,0,0,0-1.11-.62l2.85-6.35q-1.3-1.22-2.67-2.37l-4,9.2.21.28c-.26.13-.55-.2-.52-.23,1.27-1.22.51-3.18-.06-4-.79-1.18-3.31-.45-3.54,1.4-.76-.25-1.06-1.14-1.93-1.3a.59.59,0,0,0-.64.33c-.32-.54-.15-.84-.56-1.29,1.31-.11,1.8-2.11.64-3.63-.76-1-3.38-1.7-4.25.1-.32-.32-.62-.83-1-.87l-.4,0,1.9-8.47q-1.63-.68-3.31-1.25l-1.38,8.69a1,1,0,0,0-.34.32c-.36-1.84-1.47-4.18-3.48-3.65-1.24.33-1.51,2.34-2.69,2.85-.27.12-.94-.69-1.51-.42-.82.39-1.08,1.31-1.92,1.82-.55-1.13-1.59.26-1.8-.64-.27-1.21,1.08-3-.53-3.27A10.71,10.71,0,0,0,82.4,33l.14-8.36c-.58,0-1.17,0-1.75,0l-1.29,0v8.94l-.52.17c-1.33.46-1.89,2.75-3.07,1.71-1-.85-1.22-2.44-2.45-3.3-.5-.35-1.15,0-1.5.33-.78.72-1.16,1.74-1.94,2.55-.51.52.82,1.5-.08,1.75-.74.2-1.36.32-1.52,1.11a2.39,2.39,0,0,0,.52,2.3c.17.18-.4.57-.86.61-1.78.13-1.17.74-1.08-1.71-.21,0-.56-1.52-.76-1.59l-.09,0-.91-10.64q-2.1.61-4.13,1.39l2,9.28a1.69,1.69,0,0,0-.84.68c-.62,1,.28,1.59-1,1.23a1.45,1.45,0,0,0-.29.11A3.18,3.18,0,0,0,59.1,41.7c-.23.64.44,2-.41,2.34s-.89,1.09-.92,2.2c-.37,0-.75,1.13-.76.32,0-1,.13-1.86-.61-2.48s-2.12-1.56-2.82-.33c-.24-1.64-1.5-2-2.91-2.15-.75-.09-1.37.6-1.67,1.47l-2.26-6.72Q44.8,37.87,43,39.55l4,7.27c-.19,0-.37.06-.53.07a.44.44,0,0,1-.32.59c-1,.06-2.16-.06-2.12,1s.58,1.81.59,2.9c0,.22.52.45.49.63-.08.58-.79.19-1.19.37-1,.44,0,1.81-.71,2.08s-1,1.44-1.49,1.26c-1.12-.46-2.57.31-2.46,1.1a9,9,0,0,1,.11,1.07,2.58,2.58,0,0,1,0,.54c-.14.75-.76.81-1.33,1l-4.81-7.81q-1.06,1.76-2,3.6l5,6.46.24-.3c-.06.12-.12.23-.18.35a2.41,2.41,0,0,0,.94,3c-.76.57-1.09.87-.64,1.72a9.22,9.22,0,0,0,1.85,2c-.67.66-1.81-.5-2.14.36-.18.49-.11,1-.43.92-.69-.12-1-.55-1.92-.37A2.9,2.9,0,0,0,31.85,71c-.48,1.19-.31,2.32,1.51,3.46.55.34,1.71.57,1.56.71s-.22.5-.26.33c.11,1.17,1.37,1.19,1.76,1.9.21.37.08.64-.53.81a5,5,0,0,0-.66.24l-8.89-8.73q-.32,1.7-.54,3.43l8.12,7.38a.75.75,0,0,1-.17.49,6,6,0,0,0-1.36,2.57,2.2,2.2,0,0,0,.35,1.76,2,2,0,0,0,2.19.05c.17-.14,1-.81,1.18-.56.86,1.3-.88,1.87.92,4.15.68.86.11,1.64,1.12,2.21-2.32.55-1.76,2.76-1,4s3.74,1,4.76-.59c.71.5.75,1.17,1.37,1.75-.21.21-.53.4-.59.65a3.47,3.47,0,0,0,.61,3L26,88q.24,1.65.57,3.26L44.8,103.36a3.44,3.44,0,0,1,.58,1.68c.05.75,1.13,1.33,1.81,1.44a11.73,11.73,0,0,1,2.83.9c.76.31,0,1.47.44,1.71.89.53,1.77,1.39,2.8,1.32.66,0,1-.62,1.45-1.14l7.55,5.2a19.81,19.81,0,0,0-1.57,2.66l-29-11.45q.62,1.19,1.3,2.34l27.14,10.23a21,21,0,0,0-1.09,3.41l-18.7-3.81q.88.94,1.81,1.84l16.67,3.08a23.68,23.68,0,0,0-.32,3.91c-.91.37-1.83.71-2.77,1a10.8,10.8,0,0,1-3.48.23c-.1,0-.21.18-.32.28a58.52,58.52,0,0,0,17.71,6.91,57.44,57.44,0,0,0,25.7-.71c3.92-.94,7.28-2.59,10.84-4.1,1.51-.64,3.34-1.07,4.24-2.73-2.75.33-5.2-.82-7.65-1.92a19.37,19.37,0,0,0-.31-3.18l17-2.88q1-1,2-2.05l-19.18,4.1a19.31,19.31,0,0,0-1-3l27.89-11.82q.78-1.4,1.48-2.85L101.1,118a20,20,0,0,0-1.7-3l10.93-7c.57.19,1.65-.42,2.34-.11s.25-1,.61-1.6a1.55,1.55,0,0,0,.08-.22l21.41-13.64q.4-1.72.68-3.48l-22.14,15.23Zm8.59-7.49s-1.57,0-1.33-1.81c0,0-1.91,1.43-1.21-2-.06.27-.49,1.68-2-6.43a16.09,16.09,0,0,1,4.7,9.52l.36-.48s.72-4.46-4.1-9.16c0,0,.72-2.17,2.29-.36a2.2,2.2,0,0,1,.48,1.93s2.77.36,2,3C123.06,90.72,123.55,96.27,121.86,96.51Zm3.86-3.5s-1.93.48-1.2-4.1c0,0-1.69.12-2-2.41,0,0-.24,1-2.17-2a10.65,10.65,0,0,1,6,6.75S126.92,93.25,125.72,93Zm1-5.79-.36,1s1-.48.72,1l-.24.36-3-4.22S126.32,85.06,126.68,87.23Zm.72-9.89s2.53-1,2.77.6l-.12,1-.48.6A5.81,5.81,0,0,1,128,81.8c1.21,1.81-4.1,2-4.1,2,.12,2.65-6.15-1.57-6.15-1.57s6.27,1.21,11-3.13l-2.17.48s-2,1.81-6.75,1.57c0,0,.84-3,3.5-1.69C123.3,79.51,125.84,74.81,127.4,77.34Zm-1.69-9.4s1,2.77.6,4a8.56,8.56,0,0,1-2.17,2.77s1.33.36-.12,1.93c0,0-1.09,1.09-1.09,1.69,0,0-2.77-1.08-4.34,2.77,0,0-2.77.12-3.13.12s6.87-2.53,9-9.64l-.48-.24a37.91,37.91,0,0,1-4.34,5.55c-1.57,1.33-1.81-2.17-.6-2.53,0,0-.24-3.86,1.57-3.25C120.65,71.07,124,64.8,125.72,67.94Zm-8.08-.24a68.42,68.42,0,0,1-2.89,7s-2.41-1-1-3c0,0-3.38-3.25.12-4.58a1.16,1.16,0,0,1,1.33.72S118.17,65,120,66.68c0-.14.06.06.06.06l-.06-.06a11.34,11.34,0,0,0-.06,1.62s1.69.6-.48,2.41l-1.93,1.57s1.93.6-.48,2.65c0,0,1,.6-2.17,3.13A15.35,15.35,0,0,0,114,80.6l-.36-1.45s4.82-8.56,4.7-11.45ZM108,66a12.22,12.22,0,0,0,2.32,1.17c1.93-1.33,1,3.5,1,3.5,2,0,1.54,2.91,1.37,3.75l.31.23c1.45,1.08-1.93,5.18-1.93,5.18C112.33,73.48,108.61,67.08,108,66Zm-2,9.37-1-.24c-1.93-.84-.72-3.5-.72-3.5l.36-.84c4.7,6.15,4.1,11,4.1,11-2.77-1.21-1-2.65-1-2.65C104.14,77.41,105.95,75.41,105.95,75.41ZM98.47,86.26c2.53.6,5.55-2.17,5.55-2.17,2.41,1.69-.24,1.81-.24,1.81C104.5,90.72,95.94,85.66,98.47,86.26ZM102.21,103c2.53,3.62-.6,4.1-.6,4.1.72,1-1.33,2.77-1.33,2.77a136.24,136.24,0,0,1,.36-14.83c3,3,.84,3.74.84,3.74C105.22,101.69,102.21,103,102.21,103Zm-2.89,6.39c-1.81.24-1.21-2.41-1.21-2.41-1.93.6-.84-3-.84-3-1.93-.72,1.81-4.1,1.81-4.1l-.48-.6c-.84-.6,1.09-2.65,1.09-2.65C98.59,101.45,99.31,109.41,99.31,109.41ZM91.24,86c-1,2.77-2.53,1.21-2.53,1.21a7,7,0,0,1-1.33,3.25c-.24-2.89-2.53-2.17-2.53-2.17-.84-1.45,4.22-4,4.22-4a15.47,15.47,0,0,0,7.11-3.26c0,1.45-1.81,2.65-1.81,2.65C95.82,86.26,91.24,86,91.24,86Zm-9.76,35.74a6.19,6.19,0,0,1-.84.06,7.64,7.64,0,0,1-.85-.05l-.09-.06-.12,0a5.24,5.24,0,0,1-.63-.13l0-.21.34-.08a4.25,4.25,0,0,1-.61-.78,4.25,4.25,0,0,1-.45.2,4.8,4.8,0,0,0,.64.85h0a3.2,3.2,0,0,1-1.25-.67h0a3.79,3.79,0,0,0,.62-.17c-.08-.14-.16-.28-.23-.43a3.14,3.14,0,0,1-.76.16h0a12.49,12.49,0,0,1-.26-.52,2.73,2.73,0,0,1-.08-.34c0-.07,0-.13,0-.2a4.5,4.5,0,0,0,.72-.23c0-.16-.09-.32-.12-.48a4.12,4.12,0,0,1-.63.22c0-.12,0-.23,0-.35a2.21,2.21,0,0,1,.08-.4l.43-.18c0-.18,0-.35-.06-.51l-.05,0,.05-.08v0l.47-.25c0-.09,0-.17,0-.25h0l.23-.15,0,0,.08,0,.2.09h0a5.34,5.34,0,0,1-.55.38c0,.15,0,.33,0,.53a6.29,6.29,0,0,0,.8-.52c0-.09,0-.14,0-.15l.22,0h0l0,0h0l.08,0h0l.14,0h.05l.35.07.09,0h0c-.09.09-.23.23-.42.4,0,.16.07.34.12.53.23-.19.41-.36.54-.49l-.12-.24.23-.1-.07-.06-.1,0h.1l.16,0h0l.15,0h0l.58,0h1l-.25,0,0,0,.23.12-.14.25a5.94,5.94,0,0,0,.72.76c.06-.19.11-.36.15-.52a5.58,5.58,0,0,1-.58-.66h0l.4-.06.31,0h0l.4-.09h0l.1,0,.09,0,.1.05,0,0a2.11,2.11,0,0,1,.26.2l0,0a2.08,2.08,0,0,1,0,.25l.29.16a2,2,0,0,1,.21.49s0,.09,0,.14l.06,0h0a2.38,2.38,0,0,1,.05.49s0,.08,0,.12l-.19-.06a4.21,4.21,0,0,1-.13.46l.28.08c0,.08,0,.15-.05.23a2.9,2.9,0,0,1-.1.34,2.48,2.48,0,0,1-.14.33,3,3,0,0,1-.43-.06,4.55,4.55,0,0,1-.31.42l.42.09h0a2.56,2.56,0,0,1-.28.25l-.16.13a3.07,3.07,0,0,1-.38.2l-.19.09-.16,0-.19.15a4.14,4.14,0,0,1-.54.13l-.17-.07ZM74.12,88.43s-4.34-3.25-3-4.82c0,0-5.06-.6-4.1-3.5.08-.25.15-.46.2-.64l-.44.16s1-2,.44-.16l2-.69s1.21,1.69,2.53,1.57c0,0,2.53-.12,2.17,3.25A11.25,11.25,0,0,1,77,90.24s-3.86-3.62-4-6.63l-.6.12A6.19,6.19,0,0,0,74.12,88.43ZM69.3,101.81s.24,5.55-2.65,3.62c0,0,.6,2.53-1.93,2.53,0,0,2.17-2.41,1.33-5.06a6,6,0,0,0,1.45-6.15s1.21-.48,1.08-3c0,0,1.81,3.62.24,3.5C68.82,97.23,72.91,101.93,69.3,101.81Zm-7.23,8s-1.93-4.7-.24-6.15c0,0,3.38-.24,1.93-6.15,0,0,.12-3.74,1.93-5.55l.84,1.45s1.21,2.29-.72,3c0,0,2.53,4.58-1,6,0,0,.72,4.1-.84,4.7C64,107.12,64.11,109.77,62.06,109.77Zm-1.57-4.64c.78.66-.24,2.29-.24,2.29a2.48,2.48,0,0,1,.6,2.35c.84.36.66,1,.66,1-.66.18-.84-.9-.84-.9-1.63.3-.72-2.53-.72-2.53C58.21,106.21,60.5,105.13,60.5,105.13ZM66.4,87c-9.4,1.45-7-1-7-1-2.65.48-2.17-1.21-2.17-1.21C53.14,80.48,66.4,87,66.4,87Zm-13,5.79c-1.69-4.82,1.21-9.4,1.21-9.4l.48,1.69a1.76,1.76,0,0,1-.24,2.65c3.13,3.13-.48,3.13-.48,3.13C55.07,92.29,53.38,92.77,53.38,92.77ZM50.49,89.4l1.69-2.65s-.72,4.1.24,6.51c0,0-2.17,1.45-1.69-1C50.73,92.29,48.08,92.53,50.49,89.4ZM47.6,96.63c-2.17-3.62.72-5.79.72-5.79C50,93.5,49,94,49,94,50.25,95.42,47.6,96.63,47.6,96.63ZM48.2,88a2.13,2.13,0,0,1,.3,1.51c-.15,1.07-2.25.2-2.89-.09.52.35-.13,1.3-.13,1.3a3.72,3.72,0,0,1-3.86.24c-.78-.78.18-1.57.18-1.57l-.54-.12c-.3-1.15,1.93-1.08,1.93-1.08.18,0,1.69-.24,1.69-.24a5.74,5.74,0,0,0-1.81,2.35h.42c.54-1.45,8-8.26,8-8.26.42.18-1.33,2.89-1.33,2.89C50.31,86.87,48.2,88,48.2,88ZM49,58.54a1.16,1.16,0,0,1,2.17-.24c-4.26,3.65-2.3,13-2,14.46l0,.19,0-.19a25.16,25.16,0,0,0-1.4-4.09c-2.41-2.89-.24-5.06-.24-5.06C45.43,59.5,49,58.54,49,58.54Zm2.65,8.2s2.41.48-1.69,5.55c0,0-1.93-10.13,1.93-13.5,0,0,1.93.24.24,3.86C52.18,62.63,54.83,65,51.7,66.73ZM50.49,74c4.34-7.47,8.68-6.51,8.68-6.51-1.45,0-3.13,1.93-3.13,1.93,1.21,4.82-2.41,3.86-2.41,3.86C51.7,78.06,50.49,74,50.49,74ZM66.28,63.36c-.72.36-5.11.12-5.55.12-.84,0-1,.6-1.69.24a17.55,17.55,0,0,1-3.62-3.38c-1.09-1.33.36-3.5.36-3.5,2.53-3.5,3.62,2.41,3.62,2.41,4.07-2.2,3,1.93,3,1.93C64.84,60.83,66.28,63.36,66.28,63.36ZM69.3,52a9.93,9.93,0,0,0-1.45,6l.36-.24s2.17-8.8,6.39-9.4c0,0,1.81-.48,2.17-.24s-.6,7-1.93,3c0,0-1.33,6-2.77,2.53,0,0-1.57,5.55-2.77,3.38,0,0-.48,4.1-1.69,2.29,0,0-1.81-2.29-.24-3.74C67.37,55.64,65.08,54.68,69.3,52ZM84.13,55.4s2.41,1.45-.48,1.57c0,0,.12,1.93-2.53-.24,0,0,.12,2.17-3.5.36,0,0,2,1-3.86,4.34,0,0-.72.24-1.21,2.41,0,0,.07-10.89,8.8-8.65l.49-.39a9.28,9.28,0,0,0-5.42-.48s3.38-5.06,4.94-1.81A1.34,1.34,0,0,1,81,53.59S84.49,53,84.13,55.4ZM94.37,68.9s-1.21,4.94.24,7.72c0,0-5.18-2.53-2.29-3.86C92.32,72.76,91.72,65.65,94.37,68.9Zm4-17.84c.12-1.21,1.45-.72,1.45-.72,5.06,2.65,3.13,4.94,3.13,4.94,1.57,1.45-2.17,3.62-2.17,3.62,1.45-2.77-.36-7.23-.36-7.23l-.48-.12c1.33,6-.48,7.59-.48,7.59-2-1.09-.48-2.29-.48-2.29-2.53-1.45,0-4.1,0-4.1C97.87,52.75,98.35,51.06,98.35,51.06Zm3,10s.3,0,.36-.12c2.92-4.46,4-.24,4-.24,2-1.21,2.89,1.09,2.89,1.09-7.23-1.93-11.33,1.33-11.33,1.33C99.31,57.93,101.36,61.07,101.36,61.07Zm8.44,1.81s1.57,1.69-2.29,1.45c0,0,.72,1.81-3.62.6,0,0,.36,2.29-5.18.12,0,0,2.17,1.08-4.58,1.45C94.13,66.49,98.59,60,109.8,62.88ZM93.65,78.55c-7.47-2.65-11.21,4.94-11.21,4.94l.12.6c5.67-8.08,13-3.74,13-3.74-4.82,2.77-4.94,1.08-4.94,1.08-.72,2.53-3.5,1.69-3.5,1.69-.6,3.25-3.62,1.93-3.62,1.93C80.87,86.38,81.59,84,81.59,84c-2.53-2,1.33-3.86,1.33-3.86-1.21-3.13,3.5-2.77,3.5-2.77-.24-3.25,4.46-.6,4.46-.6C91.88,74.36,93.65,78.55,93.65,78.55ZM88.83,69s-.84,3.86-6.51,2.65a7.74,7.74,0,0,1,6.39-4.34v-.72s-4.58.72-5.91,3c0,0-.12-2.41,2-2.53,0,0,.72-3.38,3.5-1.69,0,0,.6-.72,1.08-.48A7.37,7.37,0,0,1,88.83,69ZM87,64.08a1.49,1.49,0,0,0-2.17,1.57,2.71,2.71,0,0,1-2.29,1.45l.84-1.93s2.77-3,5.55-3.62L89.43,64S87.74,65,87,64.08Zm-5.42,3.38s-1.81,2.41,0,4.46l-.12.72s-4.82-4.58-1.21-4.94c0,0-3.38-5.06,1.21-5.06,0,0,3.13-4.46,4.46-1.33,0,0,2.17-2.89,2.77-.36C88.71,60.95,82.08,62.88,81.59,67.46Zm-10.37-1s4.34-.24,3.86,2.41c0,0-.48,1.69-4.82,1.21,0,0,2.89,2.17-2.65,2.65,0,0,1.69,1.45-2.17,2.89,0,0-.24-9.16,7-7.72,0,0-8-3.62-8.44,7.23,0,0-2.89-4.34-.48-4.82,0,0,.48-6,3.13-3.13C66.65,67.21,69.06,63.12,71.23,66.49Zm-8.08.84s-1.69.48-.72,2.29c0,0-2.89,2.77,1.45,7.47,0,0-6.51-1.93-4.46-5.91,0,0,.72-1.08,1.09-1C60.5,70.23,59.05,67.09,63.15,67.34ZM55.8,74.09l.84-.36s1.69-2.77.72-4c0,0,.84-1.45,1.93-1.45,0,0-.72,1.08.24,1.69,0,0-4,2,.24,6.27C59.77,76.26,56.52,75.35,55.8,74.09Zm4.64,17.72c.36-.84.36-.72.36-.72s2-1.81,2,.9a12.43,12.43,0,0,0-3.25,4.82s-2.59-1.75-1.21-3a2,2,0,0,1,2-.36A2.54,2.54,0,0,1,60.44,91.81Zm3.62-.36s.72-.66.72.36c0,0-3.56,6.33-1.57,7.59,0,0-.06,4-2.53,2.83,0,0-.72,2.89-2.53,2.83,0,0-.24,1.87-1.33,1.69C56.82,106.76,56.88,100.73,64.05,91.45ZM76.77,78.06c-1.93,2.57-3.66-1.13-4-2,.52,1.66-4.89.31-4.89.31C70.74,74.69,69.3,74,69.3,74c5.79-2.65,9.89,5.79,8.2,1.93A6.35,6.35,0,0,0,72.18,72h0a2.86,2.86,0,0,0,2.9-1.46c1.93-.48.72,1.45.72,1.45,7.23.72,4.34,3.86,4.34,3.86C82.08,79.51,76.77,78.06,76.77,78.06Zm3.92,35.62c2.06-.08,2.23,2.65,2.23,2.65.06.72-5,.63-4.7-.36C78.73,114.18,79.12,113.75,80.69,113.69ZM84.13,123c.6-3.13,4-.84,4-.84,1.45-2.65,2.53.48,2.53.48,1.81-1.69,1.93.9,1.93.9a9.86,9.86,0,0,0-10.91,2.23C81.41,122.31,84.13,123,84.13,123ZM96.18,68.18,98.83,67c4.46.72-1,5.06-1,5.06,3-.72-1.08,7.35-1.08,7.35a.43.43,0,0,1-.36-.24A13,13,0,0,1,96.18,68.18Zm5.34,12.47c1,.77,1.68,1.65,1.57,1.87a2.14,2.14,0,0,1-1.27.78c-.56.11-.57.86-1.78,1.21C99.24,84.74,100.7,81.31,101.52,80.65Zm3.1.31s-4.22-1.81-2-3.13c0,0-2.89-1.45-1.21-2.77l1.33-.48s3.74,2.77,3.13,9.16C105.82,83.73,103.17,81.44,104.62,81Zm4.1-8.08s-5.91-3.38-1.69-4.7c0,0-1.21-3.5.36-2,0,0,3.5,8.08,2.65,10.25C110,76.38,105.46,73,108.72,72.88Zm15.17-10.26.43.64A1.49,1.49,0,0,1,123.89,62.62Zm-1.55,0s3,3.38,1.81,3.5c0,0-3.86,1.08-3.13-.84a8.17,8.17,0,0,1-5.18-.24s0,2.65-5.67-.24c0,0,7.72-3.62,11.69-1l.12-.6s-2.77-1.81-8.68-.36c0,0,1.93-4.34,3-2,0,0,4-2.29,3.38.24C119.69,61.07,123.79,60.83,122.34,62.63Zm-3-8.2s3.25-1.57.84,2.29a2.83,2.83,0,0,0-1,2s-1.81.24-4.46.84c0,0,2.77-4,4.46-4.1l-.48-.36s-2.77.72-2.89,1.45c0,0-.84-1.45.12-1.93S119,54.8,119.33,54.44Zm-5.55-6.27s3.74-1.81,2.41,2.17c0,0,2.17,3.38-1.93,3.62,0,0,2.41,2.77-2.17,3.86,0,0,1.57,2-1.93,3.62,0,0-1-2.41-.6-3.13s3-7.92,6-9.28l-.48-.48a22.82,22.82,0,0,0-6.75,10.73l-.84-1s-1.21-4.1,1-2.89c0,0-.48-7.35,2.41-4.34C110.89,51.06,111.49,46.36,113.78,48.17ZM109,45.27s.6-2.17,1.57-2,1.21,1.33.72,3.13l-.36,1.21h.84l-1.81,1.69s.36-2-.36-2.29l.84-1.45-.36-.36L109,46.36Zm-1.09,1.09-.12,1.33c2.89,0-.36,3.62-.36,3.62,2.29,1.69-2.29,5.91-2.29,5.91A26.42,26.42,0,0,0,106.43,47h-.48a33.6,33.6,0,0,1-.84,5.91c-.36-.36-2.77-2.17-2.77-2.17-.84-4.34,2.65-2.89,2.65-2.89-.6-1.45,0-2,0-2C106.67,42.5,107.87,46.36,107.87,46.36Zm-3.86-7-.6-.36A21.72,21.72,0,0,0,98,44.07s-1-4-.36-4.1c0,0,1.57-3.38,3.74-.6,0,0,.36-1.45,1.33-1.33s1.93-.36,2.41.48.48,2.65-1,3c0,0,1.85,1.56-2.29,2.65,0,0,3.62,2.17-3.62,5.42a5,5,0,0,1-1.08-1.93S102.09,40.21,104,39.37ZM95.94,56.49c3.13-.72-1.81,7.35-1.81,7.35,2.34-10.05-1.57-16.15-1.57-16.15h-.48c1.81,4.58,1.45,12.42,1.45,12.42C87.86,55.64,91,54.44,91,54.44a8.41,8.41,0,0,1-1.21-1.57c-2.53-3.86,1-3.38,1-3.38-.6-2,.6-1.81.6-1.81-.72-1.69,0-2.41,0-2.41,1.08-2.17,3.25,3.13,3.25,3.13,2.41-1.93.84,3.74.84,3.74C99.8,49.49,95.94,56.49,95.94,56.49ZM93,34.91s1.69-3,3,2c0,0,1.57,1.57.36,2.41a5.46,5.46,0,0,1-.84,4.94s1.69.6.36,2.29c0,0-1.33-1.33-1.81-1.69,0,0,1.81-6.39.36-9.52H94a19.78,19.78,0,0,1-.72,9,1.29,1.29,0,0,0-2.17-.24s1.21-1.33,0-2.17c0,0,2.41-1.93,1.21-2.89,0,0,.84-1.81-.12-2.89C92.2,36.23,92.2,34.91,93,34.91ZM87.38,39s1.81-4.1,3-2.65c0,0,1.81-.12.84,2.29,0,0,1.45,1.81-1.69,3.38,0,0,3.25,1.69-2.65,4.82,0,0,1.69,1.81-2,5.67a19.07,19.07,0,0,1,4.94-14.59h-.6s-5.3,3.25-5.55,11.81a14.54,14.54,0,0,1-2-4.94s1.33-1.93.36-2.53c0,0,3.25-1.81,1.93-3.62C83.88,38.64,86.78,36.84,87.38,39Zm-6.61-5.3c-.06.06-.13.1-.19.17s-.06-.05-.09-.09ZM77.62,37c1.21-2.89,2.65-1.81,2.65-1.81a3.82,3.82,0,0,1,2.17-1.09c1-.72,2.41.48,2.41.48.36,2.29-3,3.74-3,3.74,2,2.65-2.53,3.62-2.53,3.62,2.53.24-.84,3.5,0,4.1s-.72,2.89-.72,2.89l-.72-1.69C75.08,39.13,83,35.75,83,35.75l-.6-.36c-3.5.48-5.91,5.06-5.91,5.06.48-1.69-.72-1.93-.72-1.93A2.67,2.67,0,0,1,77.62,37ZM71,37.32s-1.08-3,.72-2.53c0,0,1-3.74,2.29-.48L74.24,36a7.21,7.21,0,0,1,2.17.6,1.88,1.88,0,0,0-1.69,1.81s-1.08-.48-1.57.12c0,0-.36-3.38.12-3.62h-.6s-.72,3.13-.48,3.86a1.79,1.79,0,0,0-2,.6S68.82,37.08,71,37.32Zm3.62,3.13s1.33-1.08-.72-.36S67,45.27,67,45.27c-.48-3.5,2.53-3.62,2.53-3.62,1.33-3.13,3.13-2,3.13-2,6.39-2.53.24,3.86.24,3.86C76,45.27,69.54,47,69.54,47c4.1,1.08-3.62,5.67-3.62,5.67C66.16,45.64,74.6,40.45,74.6,40.45ZM60,44.43c-.84-5.42,2.29-3.62,2.29-3.62A2.09,2.09,0,0,1,62.67,39a1.13,1.13,0,0,1,.58-.75l0,.13L64.52,38a4.73,4.73,0,0,1,.8.12c1.93,2.29-.36,4.46-.36,4.46l.24.36a2.68,2.68,0,0,1-.84,4.1c1.08,3-.72,4.46-.72,4.46a7,7,0,0,1,.24,4.1C58.45,49,65.08,38.76,65.08,38.76l-.84.24c-3.38,2.53-4,10.61-4,10.61C57.48,45.76,60,44.43,60,44.43ZM50.37,42.5s2.65.12,2.89,2.29c0,0,1.81-1.57,2.29-.36A1.77,1.77,0,0,1,54.83,47s1.61-.11,1,1.58c.16-.35.86-1,3.22,5.42,0,0-2.88-.78-8.08-10.37-.06-.1-.24.6-.24.6s2,5.25,4.45,7.83l.37.36L55.18,52c-.72-.7-2.28-2.17-2.64-2.17s-2.17,0-.48-1.21c0,0-3.5-.12-1.09-2C51,46.6,49.29,43.23,50.37,42.5Zm-1.52,4.58,0,.09-.05-.06Zm-2.22,1c.72-1.21,2,.72,2,.72,1-.6,1.33,1.93,1.33,1.93a6,6,0,0,1-3.74-1.45l-.36.48,2,1.45c0,.12-.24,0-.24,0-2.89.84-2-.84-2-.84C44,48,46.63,48,46.63,48ZM44,55.64c-.36-2.41,2.17-1.57,2.17-1.57.36-3.25,3.13-1.09,3.13-1.09,0-2.17,1.33-1.69,1.33-1.69,1.57.12,1.69,3.25,1.69,3.25-2.77-.24-8.56,1.81-8.56,1.81v.84c5.18-2,12.18-1.93,12.18-1.93A15.76,15.76,0,0,0,54,56.85c-1.69,1.45-4-.24-4-.24-2.29,3.5-4.1,1.33-4.1,1.33a2.75,2.75,0,0,1-2.53.72C40.59,56.94,44,55.64,44,55.64ZM40.35,57c.56-.33.91-.12,1.41.2.13.08,0,.32-.31.14s-.35-.38-.66-.29c.77.45,1.15,1.63,3.19,2.82.35.2,1.44.69,1.31,1.19C46.44,62,38.51,58.05,40.35,57Zm1.7,4.94c2.27-3.33,2.17,2.17,2.17,2.17,2.41-1.93,1.45,4.34,1.45,4.34,1.58-2.25,1.69,3.13,1.69,3.13-3.86-3.13-8.2-11.09-8.2-11.09C41.33,57.81,42.05,61.91,42.05,61.91Zm-3.13,2.41s-3.22-1.15-1-3.86A92.72,92.72,0,0,0,44.8,70.4a5.53,5.53,0,0,1,.39.44l-.39-.44c-.78-.8-2.6-2.29-4.43-1C40.37,69.38,36.27,64.8,38.92,64.32Zm-2.41,6c1-2.65,3.38,0,3.38,0,2.89-1.21,4.58,2.41,4.58,2.41,1.93,0,1.69,2.89,1.69,2.89-3.86-.24-13.32-4.34-13.32-4.34C32.77,69.2,36.51,70.35,36.51,70.35Zm-.72,4.34s-4.22-1-3-2.89c0,0,2.47,2.35,11.93,4.58,0,0-6.27,3.38-5.55.24C39.16,76.62,34.1,76.86,35.78,74.69Zm-.42,9.1s-1.21,1.69-2,1c0,0-1.27-1,1-3.26,0,0,0-3,3.5-3.25,0,0,1.15-.6,1.45.24,0,0-3.25.78-5.49,5.73,0,0,4.34-4.94,7.47-5.36l1.57-.18s-2.29,1.57.54.54a.7.7,0,0,1,.54-.24c.36,0-3.44,1.45-3.56,3a1.33,1.33,0,0,1-1.51,1.27A2.7,2.7,0,0,1,35.36,83.79Zm1.81,4s-.42-2.53,1.27-3c0,0,1.17-.86,1.39-.48a.46.46,0,0,1-.06.54L38,87.23s-.42.72.18.54c0,0,5.67-7.66,9.52-8.56,0,0,1.27-.84,1.15.12,0,0,.3,1.63-1.15,1.21,0,0,1,3.07-2.83,3.32,0,0,1.27,3.25-3,3.07,0,0-1,1.93-2.23.78C39.64,87.71,37.71,89.82,37.17,87.77Zm5,6s-.6-.6-.78-.12A3,3,0,0,1,38,95.18s-1.69-2.17.18-3.25c0,0,.9-1,.24-1.15a.61.61,0,0,1-.54-.72l.54-.48a7.84,7.84,0,0,0,1,.9s1-.24-.24,1.21c0,0-1.15,1.39-1,2l.36.24s1.39-2.47,2.35-2.89c0,0-.36.84,1.81,1A2.86,2.86,0,0,1,42.17,93.74Zm3.19,7.41a1.39,1.39,0,0,1-.78-2c-.9-.24-1-1-1-1.75,0,0,.42-1.15.78-1.21,0,0-1.57-1.15-1.39-1.57,0,0-.12-2.23,1.33-2.29,0,0,2.23.54,1.33,3.44l.18-.06c1.51-.24.12,3.62.12,3.62.42-.42,1,.36,1,.36A1.77,1.77,0,0,1,45.37,101.15Zm1.51,3c-1.93-1.45.24-2.17.24-2.17l1,1.45c-1-1.69.24-5.3.24-5.3h1.21c-2.17,2.89-.72,7.23-.72,7.23C47.12,106.51,46.87,104.1,46.87,104.1Zm7.05,3.62a2.07,2.07,0,0,1-1.09,1.75c-1.57-.06-2-3.13-2-3.13-2.17,0-1.21-1.45-1.21-1.45a5.4,5.4,0,0,0,1-2.47,1.16,1.16,0,0,0-1-1.51c2.47-2,2,3.92,2,3.92a7.37,7.37,0,0,0,.72,2.83l.3.18a44.75,44.75,0,0,1,.78-14.41c1.75,1.57,1,2.23,1,2.23-.42,1.75,2.17,5.67,2.17,5.67,1.15,1.45-1.57,1.45-1.57,1.45C56.82,106.7,53.93,107.72,53.93,107.72Zm9,5.79-7.63-5.33c.8-1,2.1-.7,3.08-.72,1.39,0,.48,1,.79,2.12a2.9,2.9,0,0,0,2.1,1.76c1.12,0,1.91-1,2.56-1.71L65.34,111A19.75,19.75,0,0,0,63,113.51Zm3-3.08-1-1.51a8.8,8.8,0,0,0,3.14-1.66l-.16.17.84,1.09A20.66,20.66,0,0,0,66,110.44Zm4.53-6.39a.93.93,0,0,0-.25-1.25c1.59-.62,1.43-2.45,1.22-3.85-.08-.56-1.1-.6-1.09-1,.05-1.81-1.07-3.37-.77-5.15C73.31,94,77.16,95.42,78.9,99a6.56,6.56,0,0,1-.18,5.62l-.54,1.07a24.07,24.07,0,0,0-8.55,2.42l-.77-1.5A8.44,8.44,0,0,0,70.55,104.05Zm-1,19.82-.6-.36c.72-1,1.08-1,1.69-.6,0,0,1.08-2.29,2.65-.36,0,0,2-2,2.89.6,0,0,2-1.81,3,2.41C79.18,125.56,73.76,120.86,69.54,123.87Zm10,2.48h0l-.13.09,0,0-.17.1-.06,0-.18.06a.74.74,0,0,1-.38,0,.63.63,0,0,1-.19-.1l-.08-.06a1,1,0,0,1-.24-.34s-2.17,1.51-2.59-.42c0,0-2.29,1-3-1,0,0-.69,1.66-2.14-.51,0,0,2.64-2.32,9.25,2Zm1.08,2.82a8,8,0,0,1-.77-2.62,14.65,14.65,0,0,1-.13-1.49c0-.05,0-.1,0-.15,0-.22,0-.43,0-.63,0,0,0,0,0-.05,0-.22,0-.43,0-.63v-.1c0-.16,0-.32,0-.45V123c0-.15,0-.29,0-.4v-.05l0-.22v-.12h1v.11l0,.25v0c0,.12,0,.25-.05.41h0c0,.16,0,.35-.05.54v0c0,.19,0,.4,0,.62v.07c0,.22,0,.45,0,.69V125a12.08,12.08,0,0,0,.12,1.52v.06h0c.44,2.93,2.2,5.8,8,3.29l.48.72S83.09,133.78,80.63,129.18Zm10.19-4.34c-1,1.69-2.59.36-2.59.36-.12,1.93-2.77.12-2.77.12a1.44,1.44,0,0,1,0,.39,1,1,0,0,1,0,.1,1,1,0,0,1-.07.21l-.06.1a1,1,0,0,1-.12.15l-.09.08-.17.11a5.24,5.24,0,0,1-3,.11l-.13,0h-.08a10.61,10.61,0,0,1,11.45-2.29C95,125.44,90.82,124.84,90.82,124.84Zm.13-17.08a20.63,20.63,0,0,0,2.08-4c.83-2.3-1-5.24-.36-7.62.74-2.71,4.34-3.21,6.48-1.26a1.09,1.09,0,0,1,0,1.15c-.91,1.1-2.44,2.41-1.53,3.59.36.46-.5,1.54-.73,1.49-1.62,2.18-1,3.79-.14,6.52,0,.1.68.89.79,1a4.4,4.4,0,0,1,.28.47l-.15-.18L95.92,111A22,22,0,0,0,90.94,107.76Zm7.87,6.39a21,21,0,0,0-2.31-2.58L98.29,110a1.35,1.35,0,0,0,1.25.71c1.38,0,2.52-1.15,3.19-2.32.47-.83,1.9-1.17,1.71-2.75,0-.19.32-.46.58-.61a.38.38,0,0,1,.57.3,1.28,1.28,0,0,0,.93,1.49,5.83,5.83,0,0,0,2,.44.25.25,0,0,0,0-.06,1.3,1.3,0,0,0,.35-.1l.06.06ZM110,106.47c-.06-.07-.11-.11-.17-.2s-3.86.84-2.77-2.29c0,0-2.77,1.57-3.13-.48,0,0,1.81-1.57-.6-4.46,0,0,1.08-.84-.72-3.74,0,0,6.22,6.89,8.59,10.35Zm2.41-1.66-.53.37a36.65,36.65,0,0,0-10.49-12.29c6.39-.12,5.3,2.77,5.3,2.77a3.66,3.66,0,0,1,4.1,4.46,2.08,2.08,0,0,1,1.09,3.5A5,5,0,0,1,112.39,104.81Zm-.05-9.51s-3.58.94-.72-5.3c0,0-2.29-.72-.72-3.38a3.73,3.73,0,0,0,1.33-1.45c.48-1,1.08,3.25,1.08,3.25s.36,7.84,1.93,10.25c1,1.58.48.12.48.12s-1.09-7.59-1.09-11.09c0,0-.48-2-.72-2.89-.17-.58,2.17,1.57,2.29,2.53s-.36,1-.36,1,3.62,4.46,1.09,4.7c0,0,2.53,3.5.24,4.46,0,0,.11,4.69-1.57,3a5.62,5.62,0,0,1-1.08-1.57s.12,2.53-1.21,1.81A5.61,5.61,0,0,1,112.33,95.3Z" transform="translate(-3.13 -2.84)"/>
        <path class="cls-2" d="M79.08,117.6c0-.24-.07-.42-.07-.5l-.15,0h-.12l-.2.17a7.08,7.08,0,0,0,.13.71Z" transform="translate(-3.13 -2.84)"/>
      </g>
    </g>
  </g>
  <g id="OII_Text" data-name="OII Text">
    <text class="cls-4" transform="translate(167.74 110.97) scale(1.05 1)">Innovation &amp; Improvement</text>
    <text class="cls-12" transform="translate(167.56 63.49) scale(1.05 1)">OFFICE OF</text>
  </g>
</svg>
